<svg width="1046" height="1478" viewBox="0 0 1046 1478" fill="none" xmlns="http://www.w3.org/2000/svg">
<rect x="-51" y="1028" width="1168" height="450" fill="white"/>
<circle cx="606" cy="750" r="5" fill="black" stroke="black" stroke-width="2"/>
<circle cx="206" cy="750" r="5" fill="black" stroke="black" stroke-width="2"/>
<circle cx="453" cy="750" r="5" fill="black" stroke="black" stroke-width="2"/>
<circle cx="494" cy="750" r="5" fill="black" stroke="black" stroke-width="2"/>
<circle cx="406" cy="472" r="138" stroke="black" stroke-width="4"/>
<circle cx="406" cy="472" r="198" stroke="black" stroke-width="4"/>
<line x1="206" y1="750" x2="606" y2="750" stroke="black" stroke-width="4"/>
<line x1="404" y1="335" x2="404" y2="272" stroke="black" stroke-width="4"/>
<line x1="408" y1="609" x2="408" y2="672" stroke="black" stroke-width="4"/>
<line x1="503.586" y1="371.586" x2="544.586" y2="330.586" stroke="black" stroke-width="4"/>
<line x1="505.414" y1="568.586" x2="547.414" y2="610.586" stroke="black" stroke-width="4"/>
<line x1="309.414" y1="571.414" x2="266.414" y2="614.414" stroke="black" stroke-width="4"/>
<line x1="266" y1="474" x2="209" y2="474" stroke="black" stroke-width="4"/>
<line x1="306.586" y1="375.414" x2="263.586" y2="332.414" stroke="black" stroke-width="4"/>
<line x1="546" y1="470" x2="602" y2="470" stroke="black" stroke-width="4"/>
<path d="M628.775 309.5V332H626.065V309.5H628.775ZM628.131 323.475L627.003 323.431C627.013 322.347 627.174 321.346 627.486 320.428C627.799 319.5 628.238 318.694 628.805 318.011C629.371 317.327 630.045 316.8 630.826 316.429C631.617 316.048 632.491 315.857 633.448 315.857C634.229 315.857 634.933 315.965 635.558 316.18C636.183 316.385 636.715 316.717 637.154 317.176C637.604 317.635 637.945 318.23 638.18 318.963C638.414 319.686 638.531 320.569 638.531 321.614V332H635.807V321.585C635.807 320.755 635.685 320.091 635.44 319.593C635.196 319.085 634.84 318.719 634.371 318.494C633.902 318.26 633.326 318.143 632.643 318.143C631.969 318.143 631.354 318.284 630.797 318.567C630.25 318.851 629.776 319.241 629.376 319.739C628.985 320.237 628.678 320.809 628.453 321.453C628.238 322.088 628.131 322.762 628.131 323.475ZM641.871 324.251V323.914C641.871 322.771 642.037 321.712 642.369 320.735C642.701 319.749 643.18 318.895 643.805 318.172C644.43 317.439 645.187 316.873 646.075 316.473C646.964 316.062 647.96 315.857 649.063 315.857C650.177 315.857 651.178 316.062 652.066 316.473C652.965 316.873 653.727 317.439 654.352 318.172C654.986 318.895 655.47 319.749 655.802 320.735C656.134 321.712 656.3 322.771 656.3 323.914V324.251C656.3 325.394 656.134 326.453 655.802 327.43C655.47 328.406 654.986 329.261 654.352 329.993C653.727 330.716 652.97 331.282 652.081 331.692C651.202 332.093 650.206 332.293 649.093 332.293C647.979 332.293 646.979 332.093 646.09 331.692C645.201 331.282 644.439 330.716 643.805 329.993C643.18 329.261 642.701 328.406 642.369 327.43C642.037 326.453 641.871 325.394 641.871 324.251ZM644.581 323.914V324.251C644.581 325.042 644.674 325.789 644.859 326.492C645.045 327.186 645.323 327.801 645.694 328.338C646.075 328.875 646.549 329.3 647.115 329.612C647.682 329.915 648.341 330.066 649.093 330.066C649.835 330.066 650.484 329.915 651.041 329.612C651.607 329.3 652.076 328.875 652.447 328.338C652.818 327.801 653.097 327.186 653.282 326.492C653.478 325.789 653.575 325.042 653.575 324.251V323.914C653.575 323.133 653.478 322.396 653.282 321.702C653.097 320.999 652.813 320.379 652.433 319.842C652.062 319.295 651.593 318.865 651.026 318.553C650.47 318.24 649.815 318.084 649.063 318.084C648.321 318.084 647.667 318.24 647.101 318.553C646.544 318.865 646.075 319.295 645.694 319.842C645.323 320.379 645.045 320.999 644.859 321.702C644.674 322.396 644.581 323.133 644.581 323.914ZM664.283 329.554L668.619 316.15H671.388L665.689 332H663.873L664.283 329.554ZM660.665 316.15L665.133 329.627L665.44 332H663.624L657.882 316.15H660.665ZM680.367 332.293C679.264 332.293 678.263 332.107 677.364 331.736C676.476 331.355 675.709 330.823 675.064 330.14C674.43 329.456 673.941 328.646 673.6 327.708C673.258 326.771 673.087 325.745 673.087 324.632V324.017C673.087 322.728 673.277 321.58 673.658 320.574C674.039 319.559 674.557 318.699 675.211 317.996C675.865 317.293 676.607 316.761 677.438 316.399C678.268 316.038 679.127 315.857 680.016 315.857C681.148 315.857 682.125 316.053 682.945 316.443C683.775 316.834 684.454 317.381 684.981 318.084C685.509 318.777 685.899 319.598 686.153 320.545C686.407 321.482 686.534 322.508 686.534 323.621V324.837H674.698V322.625H683.824V322.42C683.785 321.717 683.639 321.033 683.385 320.369C683.141 319.705 682.75 319.158 682.213 318.729C681.676 318.299 680.943 318.084 680.016 318.084C679.4 318.084 678.834 318.216 678.316 318.479C677.799 318.733 677.354 319.114 676.983 319.622C676.612 320.13 676.324 320.75 676.119 321.482C675.914 322.215 675.812 323.06 675.812 324.017V324.632C675.812 325.384 675.914 326.092 676.119 326.756C676.334 327.41 676.642 327.986 677.042 328.484C677.452 328.982 677.945 329.373 678.521 329.656C679.107 329.939 679.771 330.081 680.514 330.081C681.471 330.081 682.281 329.886 682.945 329.495C683.609 329.104 684.19 328.582 684.688 327.928L686.329 329.231C685.987 329.749 685.553 330.242 685.025 330.711C684.498 331.18 683.849 331.561 683.077 331.854C682.315 332.146 681.412 332.293 680.367 332.293ZM692.408 318.641V332H689.698V316.15H692.335L692.408 318.641ZM697.359 316.062L697.345 318.582C697.12 318.533 696.905 318.504 696.7 318.494C696.505 318.475 696.28 318.465 696.026 318.465C695.401 318.465 694.85 318.562 694.371 318.758C693.893 318.953 693.487 319.227 693.155 319.578C692.823 319.93 692.56 320.35 692.364 320.838C692.179 321.316 692.057 321.844 691.998 322.42L691.236 322.859C691.236 321.902 691.329 321.004 691.515 320.164C691.71 319.324 692.008 318.582 692.408 317.938C692.809 317.283 693.316 316.775 693.932 316.414C694.557 316.043 695.299 315.857 696.158 315.857C696.354 315.857 696.578 315.882 696.832 315.931C697.086 315.97 697.262 316.014 697.359 316.062ZM706.588 324.251V323.914C706.588 322.771 706.754 321.712 707.086 320.735C707.418 319.749 707.896 318.895 708.521 318.172C709.146 317.439 709.903 316.873 710.792 316.473C711.681 316.062 712.677 315.857 713.78 315.857C714.894 315.857 715.895 316.062 716.783 316.473C717.682 316.873 718.443 317.439 719.068 318.172C719.703 318.895 720.187 319.749 720.519 320.735C720.851 321.712 721.017 322.771 721.017 323.914V324.251C721.017 325.394 720.851 326.453 720.519 327.43C720.187 328.406 719.703 329.261 719.068 329.993C718.443 330.716 717.687 331.282 716.798 331.692C715.919 332.093 714.923 332.293 713.81 332.293C712.696 332.293 711.695 332.093 710.807 331.692C709.918 331.282 709.156 330.716 708.521 329.993C707.896 329.261 707.418 328.406 707.086 327.43C706.754 326.453 706.588 325.394 706.588 324.251ZM709.298 323.914V324.251C709.298 325.042 709.391 325.789 709.576 326.492C709.762 327.186 710.04 327.801 710.411 328.338C710.792 328.875 711.266 329.3 711.832 329.612C712.398 329.915 713.058 330.066 713.81 330.066C714.552 330.066 715.201 329.915 715.758 329.612C716.324 329.3 716.793 328.875 717.164 328.338C717.535 327.801 717.813 327.186 717.999 326.492C718.194 325.789 718.292 325.042 718.292 324.251V323.914C718.292 323.133 718.194 322.396 717.999 321.702C717.813 320.999 717.53 320.379 717.149 319.842C716.778 319.295 716.31 318.865 715.743 318.553C715.187 318.24 714.532 318.084 713.78 318.084C713.038 318.084 712.384 318.24 711.817 318.553C711.261 318.865 710.792 319.295 710.411 319.842C710.04 320.379 709.762 320.999 709.576 321.702C709.391 322.396 709.298 323.133 709.298 323.914ZM729 329.554L733.336 316.15H736.104L730.406 332H728.59L729 329.554ZM725.382 316.15L729.85 329.627L730.157 332H728.341L722.599 316.15H725.382ZM745.084 332.293C743.98 332.293 742.979 332.107 742.081 331.736C741.192 331.355 740.426 330.823 739.781 330.14C739.146 329.456 738.658 328.646 738.316 327.708C737.975 326.771 737.804 325.745 737.804 324.632V324.017C737.804 322.728 737.994 321.58 738.375 320.574C738.756 319.559 739.273 318.699 739.928 317.996C740.582 317.293 741.324 316.761 742.154 316.399C742.984 316.038 743.844 315.857 744.732 315.857C745.865 315.857 746.842 316.053 747.662 316.443C748.492 316.834 749.171 317.381 749.698 318.084C750.226 318.777 750.616 319.598 750.87 320.545C751.124 321.482 751.251 322.508 751.251 323.621V324.837H739.415V322.625H748.541V322.42C748.502 321.717 748.355 321.033 748.102 320.369C747.857 319.705 747.467 319.158 746.93 318.729C746.393 318.299 745.66 318.084 744.732 318.084C744.117 318.084 743.551 318.216 743.033 318.479C742.516 318.733 742.071 319.114 741.7 319.622C741.329 320.13 741.041 320.75 740.836 321.482C740.631 322.215 740.528 323.06 740.528 324.017V324.632C740.528 325.384 740.631 326.092 740.836 326.756C741.051 327.41 741.358 327.986 741.759 328.484C742.169 328.982 742.662 329.373 743.238 329.656C743.824 329.939 744.488 330.081 745.23 330.081C746.188 330.081 746.998 329.886 747.662 329.495C748.326 329.104 748.907 328.582 749.405 327.928L751.046 329.231C750.704 329.749 750.27 330.242 749.742 330.711C749.215 331.18 748.565 331.561 747.794 331.854C747.032 332.146 746.129 332.293 745.084 332.293ZM757.125 318.641V332H754.415V316.15H757.052L757.125 318.641ZM762.076 316.062L762.062 318.582C761.837 318.533 761.622 318.504 761.417 318.494C761.222 318.475 760.997 318.465 760.743 318.465C760.118 318.465 759.566 318.562 759.088 318.758C758.609 318.953 758.204 319.227 757.872 319.578C757.54 319.93 757.276 320.35 757.081 320.838C756.896 321.316 756.773 321.844 756.715 322.42L755.953 322.859C755.953 321.902 756.046 321.004 756.231 320.164C756.427 319.324 756.725 318.582 757.125 317.938C757.525 317.283 758.033 316.775 758.648 316.414C759.273 316.043 760.016 315.857 760.875 315.857C761.07 315.857 761.295 315.882 761.549 315.931C761.803 315.97 761.979 316.014 762.076 316.062ZM776.065 332H773.355V314.48C773.355 313.338 773.561 312.376 773.971 311.595C774.391 310.804 774.991 310.208 775.772 309.808C776.554 309.397 777.481 309.192 778.556 309.192C778.868 309.192 779.181 309.212 779.493 309.251C779.815 309.29 780.128 309.349 780.431 309.427L780.284 311.639C780.079 311.59 779.845 311.556 779.581 311.536C779.327 311.517 779.073 311.507 778.819 311.507C778.243 311.507 777.745 311.624 777.325 311.858C776.915 312.083 776.603 312.415 776.388 312.854C776.173 313.294 776.065 313.836 776.065 314.48V332ZM779.435 316.15V318.23H770.851V316.15H779.435ZM781.734 324.251V323.914C781.734 322.771 781.9 321.712 782.232 320.735C782.564 319.749 783.043 318.895 783.668 318.172C784.293 317.439 785.05 316.873 785.938 316.473C786.827 316.062 787.823 315.857 788.927 315.857C790.04 315.857 791.041 316.062 791.93 316.473C792.828 316.873 793.59 317.439 794.215 318.172C794.85 318.895 795.333 319.749 795.665 320.735C795.997 321.712 796.163 322.771 796.163 323.914V324.251C796.163 325.394 795.997 326.453 795.665 327.43C795.333 328.406 794.85 329.261 794.215 329.993C793.59 330.716 792.833 331.282 791.944 331.692C791.065 332.093 790.069 332.293 788.956 332.293C787.843 332.293 786.842 332.093 785.953 331.692C785.064 331.282 784.303 330.716 783.668 329.993C783.043 329.261 782.564 328.406 782.232 327.43C781.9 326.453 781.734 325.394 781.734 324.251ZM784.444 323.914V324.251C784.444 325.042 784.537 325.789 784.723 326.492C784.908 327.186 785.187 327.801 785.558 328.338C785.938 328.875 786.412 329.3 786.979 329.612C787.545 329.915 788.204 330.066 788.956 330.066C789.698 330.066 790.348 329.915 790.904 329.612C791.471 329.3 791.939 328.875 792.311 328.338C792.682 327.801 792.96 327.186 793.146 326.492C793.341 325.789 793.438 325.042 793.438 324.251V323.914C793.438 323.133 793.341 322.396 793.146 321.702C792.96 320.999 792.677 320.379 792.296 319.842C791.925 319.295 791.456 318.865 790.89 318.553C790.333 318.24 789.679 318.084 788.927 318.084C788.185 318.084 787.53 318.24 786.964 318.553C786.407 318.865 785.938 319.295 785.558 319.842C785.187 320.379 784.908 320.999 784.723 321.702C784.537 322.396 784.444 323.133 784.444 323.914ZM802.271 318.641V332H799.562V316.15H802.198L802.271 318.641ZM807.223 316.062L807.208 318.582C806.983 318.533 806.769 318.504 806.563 318.494C806.368 318.475 806.144 318.465 805.89 318.465C805.265 318.465 804.713 318.562 804.234 318.758C803.756 318.953 803.351 319.227 803.019 319.578C802.687 319.93 802.423 320.35 802.228 320.838C802.042 321.316 801.92 321.844 801.861 322.42L801.1 322.859C801.1 321.902 801.192 321.004 801.378 320.164C801.573 319.324 801.871 318.582 802.271 317.938C802.672 317.283 803.18 316.775 803.795 316.414C804.42 316.043 805.162 315.857 806.021 315.857C806.217 315.857 806.441 315.882 806.695 315.931C806.949 315.97 807.125 316.014 807.223 316.062ZM819.894 309.5V332H817.169V309.5H819.894ZM829.576 316.15L822.662 323.548L818.795 327.562L818.575 324.676L821.344 321.365L826.266 316.15H829.576ZM827.101 332L821.446 324.441L822.853 322.024L830.294 332H827.101ZM838.658 332.293C837.555 332.293 836.554 332.107 835.655 331.736C834.767 331.355 834 330.823 833.355 330.14C832.721 329.456 832.232 328.646 831.891 327.708C831.549 326.771 831.378 325.745 831.378 324.632V324.017C831.378 322.728 831.568 321.58 831.949 320.574C832.33 319.559 832.848 318.699 833.502 317.996C834.156 317.293 834.898 316.761 835.729 316.399C836.559 316.038 837.418 315.857 838.307 315.857C839.439 315.857 840.416 316.053 841.236 316.443C842.066 316.834 842.745 317.381 843.272 318.084C843.8 318.777 844.19 319.598 844.444 320.545C844.698 321.482 844.825 322.508 844.825 323.621V324.837H832.989V322.625H842.115V322.42C842.076 321.717 841.93 321.033 841.676 320.369C841.432 319.705 841.041 319.158 840.504 318.729C839.967 318.299 839.234 318.084 838.307 318.084C837.691 318.084 837.125 318.216 836.607 318.479C836.09 318.733 835.646 319.114 835.274 319.622C834.903 320.13 834.615 320.75 834.41 321.482C834.205 322.215 834.103 323.06 834.103 324.017V324.632C834.103 325.384 834.205 326.092 834.41 326.756C834.625 327.41 834.933 327.986 835.333 328.484C835.743 328.982 836.236 329.373 836.812 329.656C837.398 329.939 838.062 330.081 838.805 330.081C839.762 330.081 840.572 329.886 841.236 329.495C841.9 329.104 842.481 328.582 842.979 327.928L844.62 329.231C844.278 329.749 843.844 330.242 843.316 330.711C842.789 331.18 842.14 331.561 841.368 331.854C840.606 332.146 839.703 332.293 838.658 332.293ZM852.237 330.359L856.646 316.15H859.547L853.189 334.446C853.043 334.837 852.848 335.257 852.604 335.706C852.369 336.165 852.066 336.6 851.695 337.01C851.324 337.42 850.875 337.752 850.348 338.006C849.83 338.27 849.21 338.401 848.487 338.401C848.272 338.401 847.999 338.372 847.667 338.313C847.335 338.255 847.101 338.206 846.964 338.167L846.949 335.97C847.027 335.979 847.149 335.989 847.315 335.999C847.491 336.019 847.613 336.028 847.682 336.028C848.297 336.028 848.819 335.945 849.249 335.779C849.679 335.623 850.04 335.354 850.333 334.974C850.636 334.603 850.895 334.09 851.109 333.436L852.237 330.359ZM849 316.15L853.116 328.455L853.819 331.312L851.871 332.308L846.041 316.15H849ZM636.056 363.924V344.5H638.78V367H636.29L636.056 363.924ZM625.392 359.251V358.943C625.392 357.732 625.538 356.634 625.831 355.647C626.134 354.651 626.559 353.797 627.105 353.084C627.662 352.371 628.321 351.824 629.083 351.443C629.854 351.053 630.714 350.857 631.661 350.857C632.657 350.857 633.526 351.033 634.269 351.385C635.021 351.727 635.655 352.229 636.173 352.894C636.7 353.548 637.115 354.339 637.418 355.267C637.721 356.194 637.931 357.244 638.048 358.416V359.764C637.94 360.926 637.73 361.971 637.418 362.898C637.115 363.826 636.7 364.617 636.173 365.271C635.655 365.926 635.021 366.429 634.269 366.78C633.517 367.122 632.638 367.293 631.632 367.293C630.704 367.293 629.854 367.093 629.083 366.692C628.321 366.292 627.662 365.73 627.105 365.008C626.559 364.285 626.134 363.436 625.831 362.459C625.538 361.473 625.392 360.403 625.392 359.251ZM628.116 358.943V359.251C628.116 360.042 628.194 360.784 628.351 361.478C628.517 362.171 628.771 362.781 629.112 363.309C629.454 363.836 629.889 364.251 630.416 364.554C630.943 364.847 631.573 364.993 632.306 364.993C633.204 364.993 633.941 364.803 634.518 364.422C635.104 364.041 635.572 363.538 635.924 362.913C636.275 362.288 636.549 361.609 636.744 360.877V357.347C636.627 356.81 636.456 356.292 636.231 355.794C636.017 355.286 635.733 354.837 635.382 354.446C635.04 354.046 634.615 353.729 634.107 353.494C633.609 353.26 633.019 353.143 632.335 353.143C631.593 353.143 630.953 353.299 630.416 353.611C629.889 353.914 629.454 354.334 629.112 354.871C628.771 355.398 628.517 356.014 628.351 356.717C628.194 357.41 628.116 358.152 628.116 358.943ZM649.576 367.293C648.473 367.293 647.472 367.107 646.573 366.736C645.685 366.355 644.918 365.823 644.273 365.14C643.639 364.456 643.15 363.646 642.809 362.708C642.467 361.771 642.296 360.745 642.296 359.632V359.017C642.296 357.728 642.486 356.58 642.867 355.574C643.248 354.559 643.766 353.699 644.42 352.996C645.074 352.293 645.816 351.761 646.646 351.399C647.477 351.038 648.336 350.857 649.225 350.857C650.357 350.857 651.334 351.053 652.154 351.443C652.984 351.834 653.663 352.381 654.19 353.084C654.718 353.777 655.108 354.598 655.362 355.545C655.616 356.482 655.743 357.508 655.743 358.621V359.837H643.907V357.625H653.033V357.42C652.994 356.717 652.848 356.033 652.594 355.369C652.35 354.705 651.959 354.158 651.422 353.729C650.885 353.299 650.152 353.084 649.225 353.084C648.609 353.084 648.043 353.216 647.525 353.479C647.008 353.733 646.563 354.114 646.192 354.622C645.821 355.13 645.533 355.75 645.328 356.482C645.123 357.215 645.021 358.06 645.021 359.017V359.632C645.021 360.384 645.123 361.092 645.328 361.756C645.543 362.41 645.851 362.986 646.251 363.484C646.661 363.982 647.154 364.373 647.73 364.656C648.316 364.939 648.98 365.081 649.723 365.081C650.68 365.081 651.49 364.886 652.154 364.495C652.818 364.104 653.399 363.582 653.897 362.928L655.538 364.231C655.196 364.749 654.762 365.242 654.234 365.711C653.707 366.18 653.058 366.561 652.286 366.854C651.524 367.146 650.621 367.293 649.576 367.293ZM665.25 365.066C665.895 365.066 666.49 364.935 667.037 364.671C667.584 364.407 668.033 364.046 668.385 363.587C668.736 363.118 668.937 362.586 668.985 361.99H671.563C671.515 362.928 671.197 363.802 670.611 364.612C670.035 365.413 669.278 366.062 668.341 366.561C667.403 367.049 666.373 367.293 665.25 367.293C664.059 367.293 663.019 367.083 662.13 366.663C661.251 366.243 660.519 365.667 659.933 364.935C659.356 364.202 658.922 363.362 658.629 362.415C658.346 361.458 658.204 360.447 658.204 359.383V358.768C658.204 357.703 658.346 356.697 658.629 355.75C658.922 354.793 659.356 353.948 659.933 353.216C660.519 352.483 661.251 351.907 662.13 351.487C663.019 351.067 664.059 350.857 665.25 350.857C666.49 350.857 667.574 351.111 668.502 351.619C669.43 352.117 670.157 352.801 670.685 353.67C671.222 354.529 671.515 355.506 671.563 356.6H668.985C668.937 355.945 668.751 355.354 668.429 354.827C668.116 354.3 667.687 353.88 667.14 353.567C666.603 353.245 665.973 353.084 665.25 353.084C664.42 353.084 663.722 353.25 663.155 353.582C662.599 353.904 662.154 354.344 661.822 354.9C661.5 355.447 661.266 356.058 661.119 356.731C660.982 357.396 660.914 358.074 660.914 358.768V359.383C660.914 360.076 660.982 360.76 661.119 361.434C661.256 362.107 661.485 362.718 661.808 363.265C662.14 363.812 662.584 364.251 663.141 364.583C663.707 364.905 664.41 365.066 665.25 365.066ZM677.555 351.15V367H674.83V351.15H677.555ZM674.625 346.946C674.625 346.507 674.757 346.136 675.021 345.833C675.294 345.53 675.694 345.379 676.222 345.379C676.739 345.379 677.135 345.53 677.408 345.833C677.691 346.136 677.833 346.507 677.833 346.946C677.833 347.366 677.691 347.728 677.408 348.03C677.135 348.323 676.739 348.47 676.222 348.47C675.694 348.47 675.294 348.323 675.021 348.03C674.757 347.728 674.625 347.366 674.625 346.946ZM691.134 362.796C691.134 362.405 691.046 362.044 690.87 361.712C690.704 361.37 690.357 361.062 689.83 360.789C689.312 360.506 688.531 360.262 687.486 360.057C686.607 359.871 685.812 359.651 685.099 359.397C684.396 359.144 683.795 358.836 683.297 358.475C682.809 358.113 682.433 357.688 682.169 357.2C681.905 356.712 681.773 356.141 681.773 355.486C681.773 354.861 681.91 354.271 682.184 353.714C682.467 353.157 682.862 352.664 683.37 352.234C683.888 351.805 684.508 351.468 685.23 351.224C685.953 350.979 686.759 350.857 687.647 350.857C688.917 350.857 690.001 351.082 690.899 351.531C691.798 351.98 692.486 352.581 692.965 353.333C693.443 354.075 693.683 354.9 693.683 355.809H690.973C690.973 355.369 690.841 354.944 690.577 354.534C690.323 354.114 689.947 353.768 689.449 353.494C688.961 353.221 688.36 353.084 687.647 353.084C686.896 353.084 686.285 353.201 685.816 353.436C685.357 353.66 685.021 353.948 684.806 354.3C684.601 354.651 684.498 355.022 684.498 355.413C684.498 355.706 684.547 355.97 684.645 356.204C684.752 356.429 684.938 356.639 685.201 356.834C685.465 357.02 685.836 357.195 686.314 357.361C686.793 357.527 687.403 357.693 688.146 357.859C689.444 358.152 690.514 358.504 691.354 358.914C692.193 359.324 692.818 359.827 693.229 360.423C693.639 361.019 693.844 361.741 693.844 362.591C693.844 363.284 693.697 363.919 693.404 364.495C693.121 365.071 692.706 365.569 692.159 365.989C691.622 366.399 690.978 366.722 690.226 366.956C689.483 367.181 688.648 367.293 687.721 367.293C686.324 367.293 685.143 367.044 684.176 366.546C683.209 366.048 682.477 365.403 681.979 364.612C681.48 363.821 681.231 362.986 681.231 362.107H683.956C683.995 362.85 684.21 363.44 684.601 363.88C684.991 364.31 685.47 364.617 686.036 364.803C686.603 364.979 687.164 365.066 687.721 365.066C688.463 365.066 689.083 364.969 689.581 364.773C690.089 364.578 690.475 364.31 690.738 363.968C691.002 363.626 691.134 363.235 691.134 362.796ZM700.348 351.15V367H697.623V351.15H700.348ZM697.418 346.946C697.418 346.507 697.55 346.136 697.813 345.833C698.087 345.53 698.487 345.379 699.015 345.379C699.532 345.379 699.928 345.53 700.201 345.833C700.484 346.136 700.626 346.507 700.626 346.946C700.626 347.366 700.484 347.728 700.201 348.03C699.928 348.323 699.532 348.47 699.015 348.47C698.487 348.47 698.087 348.323 697.813 348.03C697.55 347.728 697.418 347.366 697.418 346.946ZM703.98 359.251V358.914C703.98 357.771 704.146 356.712 704.479 355.735C704.811 354.749 705.289 353.895 705.914 353.172C706.539 352.439 707.296 351.873 708.185 351.473C709.073 351.062 710.069 350.857 711.173 350.857C712.286 350.857 713.287 351.062 714.176 351.473C715.074 351.873 715.836 352.439 716.461 353.172C717.096 353.895 717.579 354.749 717.911 355.735C718.243 356.712 718.409 357.771 718.409 358.914V359.251C718.409 360.394 718.243 361.453 717.911 362.43C717.579 363.406 717.096 364.261 716.461 364.993C715.836 365.716 715.079 366.282 714.19 366.692C713.312 367.093 712.315 367.293 711.202 367.293C710.089 367.293 709.088 367.093 708.199 366.692C707.311 366.282 706.549 365.716 705.914 364.993C705.289 364.261 704.811 363.406 704.479 362.43C704.146 361.453 703.98 360.394 703.98 359.251ZM706.69 358.914V359.251C706.69 360.042 706.783 360.789 706.969 361.492C707.154 362.186 707.433 362.801 707.804 363.338C708.185 363.875 708.658 364.3 709.225 364.612C709.791 364.915 710.45 365.066 711.202 365.066C711.944 365.066 712.594 364.915 713.15 364.612C713.717 364.3 714.186 363.875 714.557 363.338C714.928 362.801 715.206 362.186 715.392 361.492C715.587 360.789 715.685 360.042 715.685 359.251V358.914C715.685 358.133 715.587 357.396 715.392 356.702C715.206 355.999 714.923 355.379 714.542 354.842C714.171 354.295 713.702 353.865 713.136 353.553C712.579 353.24 711.925 353.084 711.173 353.084C710.431 353.084 709.776 353.24 709.21 353.553C708.653 353.865 708.185 354.295 707.804 354.842C707.433 355.379 707.154 355.999 706.969 356.702C706.783 357.396 706.69 358.133 706.69 358.914ZM724.518 354.534V367H721.808V351.15H724.371L724.518 354.534ZM723.873 358.475L722.745 358.431C722.755 357.347 722.916 356.346 723.229 355.428C723.541 354.5 723.98 353.694 724.547 353.011C725.113 352.327 725.787 351.8 726.568 351.429C727.359 351.048 728.233 350.857 729.19 350.857C729.972 350.857 730.675 350.965 731.3 351.18C731.925 351.385 732.457 351.717 732.896 352.176C733.346 352.635 733.688 353.23 733.922 353.963C734.156 354.686 734.273 355.569 734.273 356.614V367H731.549V356.585C731.549 355.755 731.427 355.091 731.183 354.593C730.938 354.085 730.582 353.719 730.113 353.494C729.645 353.26 729.068 353.143 728.385 353.143C727.711 353.143 727.096 353.284 726.539 353.567C725.992 353.851 725.519 354.241 725.118 354.739C724.728 355.237 724.42 355.809 724.195 356.453C723.98 357.088 723.873 357.762 723.873 358.475ZM747.618 362.796C747.618 362.405 747.53 362.044 747.354 361.712C747.188 361.37 746.842 361.062 746.314 360.789C745.797 360.506 745.016 360.262 743.971 360.057C743.092 359.871 742.296 359.651 741.583 359.397C740.88 359.144 740.279 358.836 739.781 358.475C739.293 358.113 738.917 357.688 738.653 357.2C738.39 356.712 738.258 356.141 738.258 355.486C738.258 354.861 738.395 354.271 738.668 353.714C738.951 353.157 739.347 352.664 739.854 352.234C740.372 351.805 740.992 351.468 741.715 351.224C742.438 350.979 743.243 350.857 744.132 350.857C745.401 350.857 746.485 351.082 747.384 351.531C748.282 351.98 748.971 352.581 749.449 353.333C749.928 354.075 750.167 354.9 750.167 355.809H747.457C747.457 355.369 747.325 354.944 747.062 354.534C746.808 354.114 746.432 353.768 745.934 353.494C745.445 353.221 744.845 353.084 744.132 353.084C743.38 353.084 742.77 353.201 742.301 353.436C741.842 353.66 741.505 353.948 741.29 354.3C741.085 354.651 740.982 355.022 740.982 355.413C740.982 355.706 741.031 355.97 741.129 356.204C741.236 356.429 741.422 356.639 741.686 356.834C741.949 357.02 742.32 357.195 742.799 357.361C743.277 357.527 743.888 357.693 744.63 357.859C745.929 358.152 746.998 358.504 747.838 358.914C748.678 359.324 749.303 359.827 749.713 360.423C750.123 361.019 750.328 361.741 750.328 362.591C750.328 363.284 750.182 363.919 749.889 364.495C749.605 365.071 749.19 365.569 748.644 365.989C748.106 366.399 747.462 366.722 746.71 366.956C745.968 367.181 745.133 367.293 744.205 367.293C742.809 367.293 741.627 367.044 740.66 366.546C739.693 366.048 738.961 365.403 738.463 364.612C737.965 363.821 737.716 362.986 737.716 362.107H740.44C740.479 362.85 740.694 363.44 741.085 363.88C741.476 364.31 741.954 364.617 742.521 364.803C743.087 364.979 743.648 365.066 744.205 365.066C744.947 365.066 745.567 364.969 746.065 364.773C746.573 364.578 746.959 364.31 747.223 363.968C747.486 363.626 747.618 363.235 747.618 362.796ZM764.024 354.3V367H761.3V351.15H763.878L764.024 354.3ZM763.468 358.475L762.208 358.431C762.218 357.347 762.359 356.346 762.633 355.428C762.906 354.5 763.312 353.694 763.849 353.011C764.386 352.327 765.055 351.8 765.855 351.429C766.656 351.048 767.584 350.857 768.639 350.857C769.381 350.857 770.064 350.965 770.689 351.18C771.314 351.385 771.856 351.712 772.315 352.161C772.774 352.61 773.131 353.187 773.385 353.89C773.639 354.593 773.766 355.442 773.766 356.438V367H771.056V356.57C771.056 355.74 770.914 355.076 770.631 354.578C770.357 354.08 769.967 353.719 769.459 353.494C768.951 353.26 768.355 353.143 767.672 353.143C766.871 353.143 766.202 353.284 765.665 353.567C765.128 353.851 764.698 354.241 764.376 354.739C764.054 355.237 763.819 355.809 763.673 356.453C763.536 357.088 763.468 357.762 763.468 358.475ZM773.736 356.98L771.92 357.537C771.93 356.668 772.071 355.833 772.345 355.032C772.628 354.231 773.033 353.519 773.561 352.894C774.098 352.269 774.757 351.775 775.538 351.414C776.319 351.043 777.213 350.857 778.219 350.857C779.068 350.857 779.82 350.97 780.475 351.194C781.139 351.419 781.695 351.766 782.145 352.234C782.604 352.693 782.95 353.284 783.185 354.007C783.419 354.729 783.536 355.589 783.536 356.585V367H780.812V356.556C780.812 355.667 780.67 354.979 780.387 354.49C780.113 353.992 779.723 353.646 779.215 353.45C778.717 353.245 778.121 353.143 777.428 353.143C776.832 353.143 776.305 353.245 775.846 353.45C775.387 353.655 775.001 353.938 774.688 354.3C774.376 354.651 774.137 355.057 773.971 355.516C773.814 355.975 773.736 356.463 773.736 356.98ZM796.983 364.29V356.131C796.983 355.506 796.856 354.964 796.603 354.505C796.358 354.036 795.987 353.675 795.489 353.421C794.991 353.167 794.376 353.04 793.644 353.04C792.96 353.04 792.359 353.157 791.842 353.392C791.334 353.626 790.934 353.934 790.641 354.314C790.357 354.695 790.216 355.105 790.216 355.545H787.506C787.506 354.979 787.652 354.417 787.945 353.86C788.238 353.304 788.658 352.801 789.205 352.352C789.762 351.893 790.426 351.531 791.197 351.268C791.979 350.994 792.848 350.857 793.805 350.857C794.957 350.857 795.973 351.053 796.852 351.443C797.74 351.834 798.434 352.425 798.932 353.216C799.439 353.997 799.693 354.979 799.693 356.16V363.543C799.693 364.07 799.737 364.632 799.825 365.228C799.923 365.823 800.064 366.336 800.25 366.766V367H797.423C797.286 366.688 797.179 366.272 797.101 365.755C797.022 365.228 796.983 364.739 796.983 364.29ZM797.452 357.391L797.481 359.295H794.742C793.971 359.295 793.282 359.358 792.677 359.485C792.071 359.603 791.563 359.783 791.153 360.027C790.743 360.271 790.431 360.579 790.216 360.95C790.001 361.312 789.894 361.736 789.894 362.225C789.894 362.723 790.006 363.177 790.23 363.587C790.455 363.997 790.792 364.324 791.241 364.568C791.7 364.803 792.262 364.92 792.926 364.92C793.756 364.92 794.488 364.744 795.123 364.393C795.758 364.041 796.261 363.611 796.632 363.104C797.013 362.596 797.218 362.103 797.247 361.624L798.404 362.928C798.336 363.338 798.15 363.792 797.848 364.29C797.545 364.788 797.14 365.267 796.632 365.726C796.134 366.175 795.538 366.551 794.845 366.854C794.161 367.146 793.39 367.293 792.53 367.293C791.456 367.293 790.514 367.083 789.703 366.663C788.902 366.243 788.277 365.682 787.828 364.979C787.389 364.266 787.169 363.47 787.169 362.591C787.169 361.741 787.335 360.994 787.667 360.35C787.999 359.695 788.478 359.153 789.103 358.724C789.728 358.284 790.479 357.952 791.358 357.728C792.237 357.503 793.219 357.391 794.303 357.391H797.452ZM813.946 363.924V344.5H816.671V367H814.181L813.946 363.924ZM803.282 359.251V358.943C803.282 357.732 803.429 356.634 803.722 355.647C804.024 354.651 804.449 353.797 804.996 353.084C805.553 352.371 806.212 351.824 806.974 351.443C807.745 351.053 808.604 350.857 809.552 350.857C810.548 350.857 811.417 351.033 812.159 351.385C812.911 351.727 813.546 352.229 814.063 352.894C814.591 353.548 815.006 354.339 815.309 355.267C815.611 356.194 815.821 357.244 815.938 358.416V359.764C815.831 360.926 815.621 361.971 815.309 362.898C815.006 363.826 814.591 364.617 814.063 365.271C813.546 365.926 812.911 366.429 812.159 366.78C811.407 367.122 810.528 367.293 809.522 367.293C808.595 367.293 807.745 367.093 806.974 366.692C806.212 366.292 805.553 365.73 804.996 365.008C804.449 364.285 804.024 363.436 803.722 362.459C803.429 361.473 803.282 360.403 803.282 359.251ZM806.007 358.943V359.251C806.007 360.042 806.085 360.784 806.241 361.478C806.407 362.171 806.661 362.781 807.003 363.309C807.345 363.836 807.779 364.251 808.307 364.554C808.834 364.847 809.464 364.993 810.196 364.993C811.095 364.993 811.832 364.803 812.408 364.422C812.994 364.041 813.463 363.538 813.814 362.913C814.166 362.288 814.439 361.609 814.635 360.877V357.347C814.518 356.81 814.347 356.292 814.122 355.794C813.907 355.286 813.624 354.837 813.272 354.446C812.931 354.046 812.506 353.729 811.998 353.494C811.5 353.26 810.909 353.143 810.226 353.143C809.483 353.143 808.844 353.299 808.307 353.611C807.779 353.914 807.345 354.334 807.003 354.871C806.661 355.398 806.407 356.014 806.241 356.717C806.085 357.41 806.007 358.152 806.007 358.943ZM827.467 367.293C826.363 367.293 825.362 367.107 824.464 366.736C823.575 366.355 822.809 365.823 822.164 365.14C821.529 364.456 821.041 363.646 820.699 362.708C820.357 361.771 820.187 360.745 820.187 359.632V359.017C820.187 357.728 820.377 356.58 820.758 355.574C821.139 354.559 821.656 353.699 822.311 352.996C822.965 352.293 823.707 351.761 824.537 351.399C825.367 351.038 826.227 350.857 827.115 350.857C828.248 350.857 829.225 351.053 830.045 351.443C830.875 351.834 831.554 352.381 832.081 353.084C832.608 353.777 832.999 354.598 833.253 355.545C833.507 356.482 833.634 357.508 833.634 358.621V359.837H821.798V357.625H830.924V357.42C830.885 356.717 830.738 356.033 830.484 355.369C830.24 354.705 829.85 354.158 829.312 353.729C828.775 353.299 828.043 353.084 827.115 353.084C826.5 353.084 825.934 353.216 825.416 353.479C824.898 353.733 824.454 354.114 824.083 354.622C823.712 355.13 823.424 355.75 823.219 356.482C823.014 357.215 822.911 358.06 822.911 359.017V359.632C822.911 360.384 823.014 361.092 823.219 361.756C823.434 362.41 823.741 362.986 824.142 363.484C824.552 363.982 825.045 364.373 825.621 364.656C826.207 364.939 826.871 365.081 827.613 365.081C828.57 365.081 829.381 364.886 830.045 364.495C830.709 364.104 831.29 363.582 831.788 362.928L833.429 364.231C833.087 364.749 832.652 365.242 832.125 365.711C831.598 366.18 830.948 366.561 830.177 366.854C829.415 367.146 828.512 367.293 827.467 367.293Z" fill="black"/>
<path d="M292.339 465.066C292.983 465.066 293.579 464.935 294.126 464.671C294.673 464.407 295.122 464.046 295.474 463.587C295.825 463.118 296.025 462.586 296.074 461.99H298.652C298.604 462.928 298.286 463.802 297.7 464.612C297.124 465.413 296.367 466.062 295.43 466.561C294.492 467.049 293.462 467.293 292.339 467.293C291.147 467.293 290.107 467.083 289.219 466.663C288.34 466.243 287.607 465.667 287.021 464.935C286.445 464.202 286.011 463.362 285.718 462.415C285.435 461.458 285.293 460.447 285.293 459.383V458.768C285.293 457.703 285.435 456.697 285.718 455.75C286.011 454.793 286.445 453.948 287.021 453.216C287.607 452.483 288.34 451.907 289.219 451.487C290.107 451.067 291.147 450.857 292.339 450.857C293.579 450.857 294.663 451.111 295.591 451.619C296.519 452.117 297.246 452.801 297.773 453.67C298.311 454.529 298.604 455.506 298.652 456.6H296.074C296.025 455.945 295.84 455.354 295.518 454.827C295.205 454.3 294.775 453.88 294.229 453.567C293.691 453.245 293.062 453.084 292.339 453.084C291.509 453.084 290.811 453.25 290.244 453.582C289.688 453.904 289.243 454.344 288.911 454.9C288.589 455.447 288.354 456.058 288.208 456.731C288.071 457.396 288.003 458.074 288.003 458.768V459.383C288.003 460.076 288.071 460.76 288.208 461.434C288.345 462.107 288.574 462.718 288.896 463.265C289.229 463.812 289.673 464.251 290.229 464.583C290.796 464.905 291.499 465.066 292.339 465.066ZM304.644 444.5V467H301.919V444.5H304.644ZM311.938 451.15V467H309.214V451.15H311.938ZM309.009 446.946C309.009 446.507 309.141 446.136 309.404 445.833C309.678 445.53 310.078 445.379 310.605 445.379C311.123 445.379 311.519 445.53 311.792 445.833C312.075 446.136 312.217 446.507 312.217 446.946C312.217 447.366 312.075 447.728 311.792 448.03C311.519 448.323 311.123 448.47 310.605 448.47C310.078 448.47 309.678 448.323 309.404 448.03C309.141 447.728 309.009 447.366 309.009 446.946ZM322.632 465.066C323.276 465.066 323.872 464.935 324.419 464.671C324.966 464.407 325.415 464.046 325.767 463.587C326.118 463.118 326.318 462.586 326.367 461.99H328.945C328.896 462.928 328.579 463.802 327.993 464.612C327.417 465.413 326.66 466.062 325.723 466.561C324.785 467.049 323.755 467.293 322.632 467.293C321.44 467.293 320.4 467.083 319.512 466.663C318.633 466.243 317.9 465.667 317.314 464.935C316.738 464.202 316.304 463.362 316.011 462.415C315.728 461.458 315.586 460.447 315.586 459.383V458.768C315.586 457.703 315.728 456.697 316.011 455.75C316.304 454.793 316.738 453.948 317.314 453.216C317.9 452.483 318.633 451.907 319.512 451.487C320.4 451.067 321.44 450.857 322.632 450.857C323.872 450.857 324.956 451.111 325.884 451.619C326.812 452.117 327.539 452.801 328.066 453.67C328.604 454.529 328.896 455.506 328.945 456.6H326.367C326.318 455.945 326.133 455.354 325.811 454.827C325.498 454.3 325.068 453.88 324.521 453.567C323.984 453.245 323.354 453.084 322.632 453.084C321.802 453.084 321.104 453.25 320.537 453.582C319.98 453.904 319.536 454.344 319.204 454.9C318.882 455.447 318.647 456.058 318.501 456.731C318.364 457.396 318.296 458.074 318.296 458.768V459.383C318.296 460.076 318.364 460.76 318.501 461.434C318.638 462.107 318.867 462.718 319.189 463.265C319.521 463.812 319.966 464.251 320.522 464.583C321.089 464.905 321.792 465.066 322.632 465.066ZM334.717 444.5V467H331.992V444.5H334.717ZM344.399 451.15L337.485 458.548L333.618 462.562L333.398 459.676L336.167 456.365L341.089 451.15H344.399ZM341.924 467L336.27 459.441L337.676 457.024L345.117 467H341.924ZM353.921 459.251V458.914C353.921 457.771 354.087 456.712 354.419 455.735C354.751 454.749 355.229 453.895 355.854 453.172C356.479 452.439 357.236 451.873 358.125 451.473C359.014 451.062 360.01 450.857 361.113 450.857C362.227 450.857 363.228 451.062 364.116 451.473C365.015 451.873 365.776 452.439 366.401 453.172C367.036 453.895 367.52 454.749 367.852 455.735C368.184 456.712 368.35 457.771 368.35 458.914V459.251C368.35 460.394 368.184 461.453 367.852 462.43C367.52 463.406 367.036 464.261 366.401 464.993C365.776 465.716 365.02 466.282 364.131 466.692C363.252 467.093 362.256 467.293 361.143 467.293C360.029 467.293 359.028 467.093 358.14 466.692C357.251 466.282 356.489 465.716 355.854 464.993C355.229 464.261 354.751 463.406 354.419 462.43C354.087 461.453 353.921 460.394 353.921 459.251ZM356.631 458.914V459.251C356.631 460.042 356.724 460.789 356.909 461.492C357.095 462.186 357.373 462.801 357.744 463.338C358.125 463.875 358.599 464.3 359.165 464.612C359.731 464.915 360.391 465.066 361.143 465.066C361.885 465.066 362.534 464.915 363.091 464.612C363.657 464.3 364.126 463.875 364.497 463.338C364.868 462.801 365.146 462.186 365.332 461.492C365.527 460.789 365.625 460.042 365.625 459.251V458.914C365.625 458.133 365.527 457.396 365.332 456.702C365.146 455.999 364.863 455.379 364.482 454.842C364.111 454.295 363.643 453.865 363.076 453.553C362.52 453.24 361.865 453.084 361.113 453.084C360.371 453.084 359.717 453.24 359.15 453.553C358.594 453.865 358.125 454.295 357.744 454.842C357.373 455.379 357.095 455.999 356.909 456.702C356.724 457.396 356.631 458.133 356.631 458.914ZM374.458 454.534V467H371.748V451.15H374.312L374.458 454.534ZM373.813 458.475L372.686 458.431C372.695 457.347 372.856 456.346 373.169 455.428C373.481 454.5 373.921 453.694 374.487 453.011C375.054 452.327 375.728 451.8 376.509 451.429C377.3 451.048 378.174 450.857 379.131 450.857C379.912 450.857 380.615 450.965 381.24 451.18C381.865 451.385 382.397 451.717 382.837 452.176C383.286 452.635 383.628 453.23 383.862 453.963C384.097 454.686 384.214 455.569 384.214 456.614V467H381.489V456.585C381.489 455.755 381.367 455.091 381.123 454.593C380.879 454.085 380.522 453.719 380.054 453.494C379.585 453.26 379.009 453.143 378.325 453.143C377.651 453.143 377.036 453.284 376.479 453.567C375.933 453.851 375.459 454.241 375.059 454.739C374.668 455.237 374.36 455.809 374.136 456.453C373.921 457.088 373.813 457.762 373.813 458.475ZM402.407 451.15V453.23H393.838V451.15H402.407ZM396.738 447.298H399.448V463.074C399.448 463.611 399.531 464.017 399.697 464.29C399.863 464.563 400.078 464.744 400.342 464.832C400.605 464.92 400.889 464.964 401.191 464.964C401.416 464.964 401.65 464.944 401.895 464.905C402.148 464.856 402.339 464.817 402.466 464.788L402.48 467C402.266 467.068 401.982 467.132 401.631 467.19C401.289 467.259 400.874 467.293 400.386 467.293C399.722 467.293 399.111 467.161 398.555 466.897C397.998 466.634 397.554 466.194 397.222 465.579C396.899 464.954 396.738 464.114 396.738 463.06V447.298ZM408.296 444.5V467H405.586V444.5H408.296ZM407.651 458.475L406.523 458.431C406.533 457.347 406.694 456.346 407.007 455.428C407.319 454.5 407.759 453.694 408.325 453.011C408.892 452.327 409.565 451.8 410.347 451.429C411.138 451.048 412.012 450.857 412.969 450.857C413.75 450.857 414.453 450.965 415.078 451.18C415.703 451.385 416.235 451.717 416.675 452.176C417.124 452.635 417.466 453.23 417.7 453.963C417.935 454.686 418.052 455.569 418.052 456.614V467H415.327V456.585C415.327 455.755 415.205 455.091 414.961 454.593C414.717 454.085 414.36 453.719 413.892 453.494C413.423 453.26 412.847 453.143 412.163 453.143C411.489 453.143 410.874 453.284 410.317 453.567C409.771 453.851 409.297 454.241 408.896 454.739C408.506 455.237 408.198 455.809 407.974 456.453C407.759 457.088 407.651 457.762 407.651 458.475ZM428.687 467.293C427.583 467.293 426.582 467.107 425.684 466.736C424.795 466.355 424.028 465.823 423.384 465.14C422.749 464.456 422.261 463.646 421.919 462.708C421.577 461.771 421.406 460.745 421.406 459.632V459.017C421.406 457.728 421.597 456.58 421.978 455.574C422.358 454.559 422.876 453.699 423.53 452.996C424.185 452.293 424.927 451.761 425.757 451.399C426.587 451.038 427.446 450.857 428.335 450.857C429.468 450.857 430.444 451.053 431.265 451.443C432.095 451.834 432.773 452.381 433.301 453.084C433.828 453.777 434.219 454.598 434.473 455.545C434.727 456.482 434.854 457.508 434.854 458.621V459.837H423.018V457.625H432.144V457.42C432.104 456.717 431.958 456.033 431.704 455.369C431.46 454.705 431.069 454.158 430.532 453.729C429.995 453.299 429.263 453.084 428.335 453.084C427.72 453.084 427.153 453.216 426.636 453.479C426.118 453.733 425.674 454.114 425.303 454.622C424.932 455.13 424.644 455.75 424.438 456.482C424.233 457.215 424.131 458.06 424.131 459.017V459.632C424.131 460.384 424.233 461.092 424.438 461.756C424.653 462.41 424.961 462.986 425.361 463.484C425.771 463.982 426.265 464.373 426.841 464.656C427.427 464.939 428.091 465.081 428.833 465.081C429.79 465.081 430.601 464.886 431.265 464.495C431.929 464.104 432.51 463.582 433.008 462.928L434.648 464.231C434.307 464.749 433.872 465.242 433.345 465.711C432.817 466.18 432.168 466.561 431.396 466.854C430.635 467.146 429.731 467.293 428.687 467.293ZM448.403 451.15V467H445.679V451.15H448.403ZM445.474 446.946C445.474 446.507 445.605 446.136 445.869 445.833C446.143 445.53 446.543 445.379 447.07 445.379C447.588 445.379 447.983 445.53 448.257 445.833C448.54 446.136 448.682 446.507 448.682 446.946C448.682 447.366 448.54 447.728 448.257 448.03C447.983 448.323 447.588 448.47 447.07 448.47C446.543 448.47 446.143 448.323 445.869 448.03C445.605 447.728 445.474 447.366 445.474 446.946ZM455.449 454.3V467H452.725V451.15H455.303L455.449 454.3ZM454.893 458.475L453.633 458.431C453.643 457.347 453.784 456.346 454.058 455.428C454.331 454.5 454.736 453.694 455.273 453.011C455.811 452.327 456.479 451.8 457.28 451.429C458.081 451.048 459.009 450.857 460.063 450.857C460.806 450.857 461.489 450.965 462.114 451.18C462.739 451.385 463.281 451.712 463.74 452.161C464.199 452.61 464.556 453.187 464.81 453.89C465.063 454.593 465.19 455.442 465.19 456.438V467H462.48V456.57C462.48 455.74 462.339 455.076 462.056 454.578C461.782 454.08 461.392 453.719 460.884 453.494C460.376 453.26 459.78 453.143 459.097 453.143C458.296 453.143 457.627 453.284 457.09 453.567C456.553 453.851 456.123 454.241 455.801 454.739C455.479 455.237 455.244 455.809 455.098 456.453C454.961 457.088 454.893 457.762 454.893 458.475ZM465.161 456.98L463.345 457.537C463.354 456.668 463.496 455.833 463.77 455.032C464.053 454.231 464.458 453.519 464.985 452.894C465.522 452.269 466.182 451.775 466.963 451.414C467.744 451.043 468.638 450.857 469.644 450.857C470.493 450.857 471.245 450.97 471.899 451.194C472.563 451.419 473.12 451.766 473.569 452.234C474.028 452.693 474.375 453.284 474.609 454.007C474.844 454.729 474.961 455.589 474.961 456.585V467H472.236V456.556C472.236 455.667 472.095 454.979 471.812 454.49C471.538 453.992 471.147 453.646 470.64 453.45C470.142 453.245 469.546 453.143 468.853 453.143C468.257 453.143 467.729 453.245 467.271 453.45C466.812 453.655 466.426 453.938 466.113 454.3C465.801 454.651 465.562 455.057 465.396 455.516C465.239 455.975 465.161 456.463 465.161 456.98ZM488.408 464.29V456.131C488.408 455.506 488.281 454.964 488.027 454.505C487.783 454.036 487.412 453.675 486.914 453.421C486.416 453.167 485.801 453.04 485.068 453.04C484.385 453.04 483.784 453.157 483.267 453.392C482.759 453.626 482.358 453.934 482.065 454.314C481.782 454.695 481.641 455.105 481.641 455.545H478.931C478.931 454.979 479.077 454.417 479.37 453.86C479.663 453.304 480.083 452.801 480.63 452.352C481.187 451.893 481.851 451.531 482.622 451.268C483.403 450.994 484.272 450.857 485.229 450.857C486.382 450.857 487.397 451.053 488.276 451.443C489.165 451.834 489.858 452.425 490.356 453.216C490.864 453.997 491.118 454.979 491.118 456.16V463.543C491.118 464.07 491.162 464.632 491.25 465.228C491.348 465.823 491.489 466.336 491.675 466.766V467H488.848C488.711 466.688 488.604 466.272 488.525 465.755C488.447 465.228 488.408 464.739 488.408 464.29ZM488.877 457.391L488.906 459.295H486.167C485.396 459.295 484.707 459.358 484.102 459.485C483.496 459.603 482.988 459.783 482.578 460.027C482.168 460.271 481.855 460.579 481.641 460.95C481.426 461.312 481.318 461.736 481.318 462.225C481.318 462.723 481.431 463.177 481.655 463.587C481.88 463.997 482.217 464.324 482.666 464.568C483.125 464.803 483.687 464.92 484.351 464.92C485.181 464.92 485.913 464.744 486.548 464.393C487.183 464.041 487.686 463.611 488.057 463.104C488.438 462.596 488.643 462.103 488.672 461.624L489.829 462.928C489.761 463.338 489.575 463.792 489.272 464.29C488.97 464.788 488.564 465.267 488.057 465.726C487.559 466.175 486.963 466.551 486.27 466.854C485.586 467.146 484.814 467.293 483.955 467.293C482.881 467.293 481.938 467.083 481.128 466.663C480.327 466.243 479.702 465.682 479.253 464.979C478.813 464.266 478.594 463.47 478.594 462.591C478.594 461.741 478.76 460.994 479.092 460.35C479.424 459.695 479.902 459.153 480.527 458.724C481.152 458.284 481.904 457.952 482.783 457.728C483.662 457.503 484.644 457.391 485.728 457.391H488.877ZM505.649 451.15H508.11V466.663C508.11 468.06 507.827 469.251 507.261 470.237C506.694 471.224 505.903 471.971 504.888 472.479C503.882 472.996 502.72 473.255 501.401 473.255C500.854 473.255 500.21 473.167 499.468 472.991C498.735 472.825 498.013 472.537 497.3 472.127C496.597 471.727 496.006 471.185 495.527 470.501L496.948 468.89C497.612 469.69 498.306 470.247 499.028 470.56C499.761 470.872 500.483 471.028 501.196 471.028C502.056 471.028 502.798 470.867 503.423 470.545C504.048 470.223 504.531 469.744 504.873 469.109C505.225 468.484 505.4 467.713 505.4 466.795V454.637L505.649 451.15ZM494.736 459.251V458.943C494.736 457.732 494.878 456.634 495.161 455.647C495.454 454.651 495.869 453.797 496.406 453.084C496.953 452.371 497.612 451.824 498.384 451.443C499.155 451.053 500.024 450.857 500.991 450.857C501.987 450.857 502.856 451.033 503.599 451.385C504.351 451.727 504.985 452.229 505.503 452.894C506.03 453.548 506.445 454.339 506.748 455.267C507.051 456.194 507.261 457.244 507.378 458.416V459.764C507.271 460.926 507.061 461.971 506.748 462.898C506.445 463.826 506.03 464.617 505.503 465.271C504.985 465.926 504.351 466.429 503.599 466.78C502.847 467.122 501.968 467.293 500.962 467.293C500.015 467.293 499.155 467.093 498.384 466.692C497.622 466.292 496.968 465.73 496.421 465.008C495.874 464.285 495.454 463.436 495.161 462.459C494.878 461.473 494.736 460.403 494.736 459.251ZM497.446 458.943V459.251C497.446 460.042 497.524 460.784 497.681 461.478C497.847 462.171 498.096 462.781 498.428 463.309C498.77 463.836 499.204 464.251 499.731 464.554C500.259 464.847 500.889 464.993 501.621 464.993C502.52 464.993 503.262 464.803 503.848 464.422C504.434 464.041 504.897 463.538 505.239 462.913C505.591 462.288 505.864 461.609 506.06 460.877V457.347C505.952 456.81 505.786 456.292 505.562 455.794C505.347 455.286 505.063 454.837 504.712 454.446C504.37 454.046 503.945 453.729 503.438 453.494C502.93 453.26 502.334 453.143 501.65 453.143C500.908 453.143 500.269 453.299 499.731 453.611C499.204 453.914 498.77 454.334 498.428 454.871C498.096 455.398 497.847 456.014 497.681 456.717C497.524 457.41 497.446 458.152 497.446 458.943ZM518.804 467.293C517.7 467.293 516.699 467.107 515.801 466.736C514.912 466.355 514.146 465.823 513.501 465.14C512.866 464.456 512.378 463.646 512.036 462.708C511.694 461.771 511.523 460.745 511.523 459.632V459.017C511.523 457.728 511.714 456.58 512.095 455.574C512.476 454.559 512.993 453.699 513.647 452.996C514.302 452.293 515.044 451.761 515.874 451.399C516.704 451.038 517.563 450.857 518.452 450.857C519.585 450.857 520.562 451.053 521.382 451.443C522.212 451.834 522.891 452.381 523.418 453.084C523.945 453.777 524.336 454.598 524.59 455.545C524.844 456.482 524.971 457.508 524.971 458.621V459.837H513.135V457.625H522.261V457.42C522.222 456.717 522.075 456.033 521.821 455.369C521.577 454.705 521.187 454.158 520.649 453.729C520.112 453.299 519.38 453.084 518.452 453.084C517.837 453.084 517.271 453.216 516.753 453.479C516.235 453.733 515.791 454.114 515.42 454.622C515.049 455.13 514.761 455.75 514.556 456.482C514.351 457.215 514.248 458.06 514.248 459.017V459.632C514.248 460.384 514.351 461.092 514.556 461.756C514.771 462.41 515.078 462.986 515.479 463.484C515.889 463.982 516.382 464.373 516.958 464.656C517.544 464.939 518.208 465.081 518.95 465.081C519.907 465.081 520.718 464.886 521.382 464.495C522.046 464.104 522.627 463.582 523.125 462.928L524.766 464.231C524.424 464.749 523.989 465.242 523.462 465.711C522.935 466.18 522.285 466.561 521.514 466.854C520.752 467.146 519.849 467.293 518.804 467.293ZM322.617 486.15V488.23H314.048V486.15H322.617ZM316.948 482.298H319.658V498.074C319.658 498.611 319.741 499.017 319.907 499.29C320.073 499.563 320.288 499.744 320.552 499.832C320.815 499.92 321.099 499.964 321.401 499.964C321.626 499.964 321.86 499.944 322.104 499.905C322.358 499.856 322.549 499.817 322.676 499.788L322.69 502C322.476 502.068 322.192 502.132 321.841 502.19C321.499 502.259 321.084 502.293 320.596 502.293C319.932 502.293 319.321 502.161 318.765 501.897C318.208 501.634 317.764 501.194 317.432 500.579C317.109 499.954 316.948 499.114 316.948 498.06V482.298ZM324.785 494.251V493.914C324.785 492.771 324.951 491.712 325.283 490.735C325.615 489.749 326.094 488.895 326.719 488.172C327.344 487.439 328.101 486.873 328.989 486.473C329.878 486.062 330.874 485.857 331.978 485.857C333.091 485.857 334.092 486.062 334.98 486.473C335.879 486.873 336.641 487.439 337.266 488.172C337.9 488.895 338.384 489.749 338.716 490.735C339.048 491.712 339.214 492.771 339.214 493.914V494.251C339.214 495.394 339.048 496.453 338.716 497.43C338.384 498.406 337.9 499.261 337.266 499.993C336.641 500.716 335.884 501.282 334.995 501.692C334.116 502.093 333.12 502.293 332.007 502.293C330.894 502.293 329.893 502.093 329.004 501.692C328.115 501.282 327.354 500.716 326.719 499.993C326.094 499.261 325.615 498.406 325.283 497.43C324.951 496.453 324.785 495.394 324.785 494.251ZM327.495 493.914V494.251C327.495 495.042 327.588 495.789 327.773 496.492C327.959 497.186 328.237 497.801 328.608 498.338C328.989 498.875 329.463 499.3 330.029 499.612C330.596 499.915 331.255 500.066 332.007 500.066C332.749 500.066 333.398 499.915 333.955 499.612C334.521 499.3 334.99 498.875 335.361 498.338C335.732 497.801 336.011 497.186 336.196 496.492C336.392 495.789 336.489 495.042 336.489 494.251V493.914C336.489 493.133 336.392 492.396 336.196 491.702C336.011 490.999 335.728 490.379 335.347 489.842C334.976 489.295 334.507 488.865 333.94 488.553C333.384 488.24 332.729 488.084 331.978 488.084C331.235 488.084 330.581 488.24 330.015 488.553C329.458 488.865 328.989 489.295 328.608 489.842C328.237 490.379 327.959 490.999 327.773 491.702C327.588 492.396 327.495 493.133 327.495 493.914ZM352.778 479.5V502H350.054V479.5H352.778ZM362.461 486.15L355.547 493.548L351.68 497.562L351.46 494.676L354.229 491.365L359.15 486.15H362.461ZM359.985 502L354.331 494.441L355.737 492.024L363.179 502H359.985ZM367.969 489.534V502H365.259V486.15H367.822L367.969 489.534ZM367.324 493.475L366.196 493.431C366.206 492.347 366.367 491.346 366.68 490.428C366.992 489.5 367.432 488.694 367.998 488.011C368.564 487.327 369.238 486.8 370.02 486.429C370.811 486.048 371.685 485.857 372.642 485.857C373.423 485.857 374.126 485.965 374.751 486.18C375.376 486.385 375.908 486.717 376.348 487.176C376.797 487.635 377.139 488.23 377.373 488.963C377.607 489.686 377.725 490.569 377.725 491.614V502H375V491.585C375 490.755 374.878 490.091 374.634 489.593C374.39 489.085 374.033 488.719 373.564 488.494C373.096 488.26 372.52 488.143 371.836 488.143C371.162 488.143 370.547 488.284 369.99 488.567C369.443 488.851 368.97 489.241 368.569 489.739C368.179 490.237 367.871 490.809 367.646 491.453C367.432 492.088 367.324 492.762 367.324 493.475ZM381.123 494.251V493.914C381.123 492.771 381.289 491.712 381.621 490.735C381.953 489.749 382.432 488.895 383.057 488.172C383.682 487.439 384.438 486.873 385.327 486.473C386.216 486.062 387.212 485.857 388.315 485.857C389.429 485.857 390.43 486.062 391.318 486.473C392.217 486.873 392.979 487.439 393.604 488.172C394.238 488.895 394.722 489.749 395.054 490.735C395.386 491.712 395.552 492.771 395.552 493.914V494.251C395.552 495.394 395.386 496.453 395.054 497.43C394.722 498.406 394.238 499.261 393.604 499.993C392.979 500.716 392.222 501.282 391.333 501.692C390.454 502.093 389.458 502.293 388.345 502.293C387.231 502.293 386.23 502.093 385.342 501.692C384.453 501.282 383.691 500.716 383.057 499.993C382.432 499.261 381.953 498.406 381.621 497.43C381.289 496.453 381.123 495.394 381.123 494.251ZM383.833 493.914V494.251C383.833 495.042 383.926 495.789 384.111 496.492C384.297 497.186 384.575 497.801 384.946 498.338C385.327 498.875 385.801 499.3 386.367 499.612C386.934 499.915 387.593 500.066 388.345 500.066C389.087 500.066 389.736 499.915 390.293 499.612C390.859 499.3 391.328 498.875 391.699 498.338C392.07 497.801 392.349 497.186 392.534 496.492C392.729 495.789 392.827 495.042 392.827 494.251V493.914C392.827 493.133 392.729 492.396 392.534 491.702C392.349 490.999 392.065 490.379 391.685 489.842C391.313 489.295 390.845 488.865 390.278 488.553C389.722 488.24 389.067 488.084 388.315 488.084C387.573 488.084 386.919 488.24 386.353 488.553C385.796 488.865 385.327 489.295 384.946 489.842C384.575 490.379 384.297 490.999 384.111 491.702C383.926 492.396 383.833 493.133 383.833 493.914ZM402.964 499.188L407.036 486.15H408.823L408.472 488.743L404.326 502H402.583L402.964 499.188ZM400.225 486.15L403.696 499.334L403.945 502H402.114L397.515 486.15H400.225ZM412.72 499.231L416.03 486.15H418.726L414.126 502H412.31L412.72 499.231ZM409.219 486.15L413.203 498.968L413.657 502H411.929L407.666 488.714L407.314 486.15H409.219ZM431.646 489.3V502H428.921V486.15H431.499L431.646 489.3ZM431.089 493.475L429.829 493.431C429.839 492.347 429.98 491.346 430.254 490.428C430.527 489.5 430.933 488.694 431.47 488.011C432.007 487.327 432.676 486.8 433.477 486.429C434.277 486.048 435.205 485.857 436.26 485.857C437.002 485.857 437.686 485.965 438.311 486.18C438.936 486.385 439.478 486.712 439.937 487.161C440.396 487.61 440.752 488.187 441.006 488.89C441.26 489.593 441.387 490.442 441.387 491.438V502H438.677V491.57C438.677 490.74 438.535 490.076 438.252 489.578C437.979 489.08 437.588 488.719 437.08 488.494C436.572 488.26 435.977 488.143 435.293 488.143C434.492 488.143 433.823 488.284 433.286 488.567C432.749 488.851 432.319 489.241 431.997 489.739C431.675 490.237 431.44 490.809 431.294 491.453C431.157 492.088 431.089 492.762 431.089 493.475ZM441.357 491.98L439.541 492.537C439.551 491.668 439.692 490.833 439.966 490.032C440.249 489.231 440.654 488.519 441.182 487.894C441.719 487.269 442.378 486.775 443.159 486.414C443.94 486.043 444.834 485.857 445.84 485.857C446.689 485.857 447.441 485.97 448.096 486.194C448.76 486.419 449.316 486.766 449.766 487.234C450.225 487.693 450.571 488.284 450.806 489.007C451.04 489.729 451.157 490.589 451.157 491.585V502H448.433V491.556C448.433 490.667 448.291 489.979 448.008 489.49C447.734 488.992 447.344 488.646 446.836 488.45C446.338 488.245 445.742 488.143 445.049 488.143C444.453 488.143 443.926 488.245 443.467 488.45C443.008 488.655 442.622 488.938 442.31 489.3C441.997 489.651 441.758 490.057 441.592 490.516C441.436 490.975 441.357 491.463 441.357 491.98ZM454.541 494.251V493.914C454.541 492.771 454.707 491.712 455.039 490.735C455.371 489.749 455.85 488.895 456.475 488.172C457.1 487.439 457.856 486.873 458.745 486.473C459.634 486.062 460.63 485.857 461.733 485.857C462.847 485.857 463.848 486.062 464.736 486.473C465.635 486.873 466.396 487.439 467.021 488.172C467.656 488.895 468.14 489.749 468.472 490.735C468.804 491.712 468.97 492.771 468.97 493.914V494.251C468.97 495.394 468.804 496.453 468.472 497.43C468.14 498.406 467.656 499.261 467.021 499.993C466.396 500.716 465.64 501.282 464.751 501.692C463.872 502.093 462.876 502.293 461.763 502.293C460.649 502.293 459.648 502.093 458.76 501.692C457.871 501.282 457.109 500.716 456.475 499.993C455.85 499.261 455.371 498.406 455.039 497.43C454.707 496.453 454.541 495.394 454.541 494.251ZM457.251 493.914V494.251C457.251 495.042 457.344 495.789 457.529 496.492C457.715 497.186 457.993 497.801 458.364 498.338C458.745 498.875 459.219 499.3 459.785 499.612C460.352 499.915 461.011 500.066 461.763 500.066C462.505 500.066 463.154 499.915 463.711 499.612C464.277 499.3 464.746 498.875 465.117 498.338C465.488 497.801 465.767 497.186 465.952 496.492C466.147 495.789 466.245 495.042 466.245 494.251V493.914C466.245 493.133 466.147 492.396 465.952 491.702C465.767 490.999 465.483 490.379 465.103 489.842C464.731 489.295 464.263 488.865 463.696 488.553C463.14 488.24 462.485 488.084 461.733 488.084C460.991 488.084 460.337 488.24 459.771 488.553C459.214 488.865 458.745 489.295 458.364 489.842C457.993 490.379 457.715 490.999 457.529 491.702C457.344 492.396 457.251 493.133 457.251 493.914ZM475.078 488.641V502H472.368V486.15H475.005L475.078 488.641ZM480.029 486.062L480.015 488.582C479.79 488.533 479.575 488.504 479.37 488.494C479.175 488.475 478.95 488.465 478.696 488.465C478.071 488.465 477.52 488.562 477.041 488.758C476.562 488.953 476.157 489.227 475.825 489.578C475.493 489.93 475.229 490.35 475.034 490.838C474.849 491.316 474.727 491.844 474.668 492.42L473.906 492.859C473.906 491.902 473.999 491.004 474.185 490.164C474.38 489.324 474.678 488.582 475.078 487.938C475.479 487.283 475.986 486.775 476.602 486.414C477.227 486.043 477.969 485.857 478.828 485.857C479.023 485.857 479.248 485.882 479.502 485.931C479.756 485.97 479.932 486.014 480.029 486.062ZM488.818 502.293C487.715 502.293 486.714 502.107 485.815 501.736C484.927 501.355 484.16 500.823 483.516 500.14C482.881 499.456 482.393 498.646 482.051 497.708C481.709 496.771 481.538 495.745 481.538 494.632V494.017C481.538 492.728 481.729 491.58 482.109 490.574C482.49 489.559 483.008 488.699 483.662 487.996C484.316 487.293 485.059 486.761 485.889 486.399C486.719 486.038 487.578 485.857 488.467 485.857C489.6 485.857 490.576 486.053 491.396 486.443C492.227 486.834 492.905 487.381 493.433 488.084C493.96 488.777 494.351 489.598 494.604 490.545C494.858 491.482 494.985 492.508 494.985 493.621V494.837H483.149V492.625H492.275V492.42C492.236 491.717 492.09 491.033 491.836 490.369C491.592 489.705 491.201 489.158 490.664 488.729C490.127 488.299 489.395 488.084 488.467 488.084C487.852 488.084 487.285 488.216 486.768 488.479C486.25 488.733 485.806 489.114 485.435 489.622C485.063 490.13 484.775 490.75 484.57 491.482C484.365 492.215 484.263 493.06 484.263 494.017V494.632C484.263 495.384 484.365 496.092 484.57 496.756C484.785 497.41 485.093 497.986 485.493 498.484C485.903 498.982 486.396 499.373 486.973 499.656C487.559 499.939 488.223 500.081 488.965 500.081C489.922 500.081 490.732 499.886 491.396 499.495C492.061 499.104 492.642 498.582 493.14 497.928L494.78 499.231C494.438 499.749 494.004 500.242 493.477 500.711C492.949 501.18 492.3 501.561 491.528 501.854C490.767 502.146 489.863 502.293 488.818 502.293Z" fill="black"/>
<path d="M642.356 820.672V842H639.573V820.672H642.356ZM649.212 820.672V822.986H632.732V820.672H649.212ZM649.783 834.251V833.914C649.783 832.771 649.949 831.712 650.281 830.735C650.613 829.749 651.092 828.895 651.717 828.172C652.342 827.439 653.099 826.873 653.987 826.473C654.876 826.062 655.872 825.857 656.976 825.857C658.089 825.857 659.09 826.062 659.979 826.473C660.877 826.873 661.639 827.439 662.264 828.172C662.898 828.895 663.382 829.749 663.714 830.735C664.046 831.712 664.212 832.771 664.212 833.914V834.251C664.212 835.394 664.046 836.453 663.714 837.43C663.382 838.406 662.898 839.261 662.264 839.993C661.639 840.716 660.882 841.282 659.993 841.692C659.114 842.093 658.118 842.293 657.005 842.293C655.892 842.293 654.891 842.093 654.002 841.692C653.113 841.282 652.352 840.716 651.717 839.993C651.092 839.261 650.613 838.406 650.281 837.43C649.949 836.453 649.783 835.394 649.783 834.251ZM652.493 833.914V834.251C652.493 835.042 652.586 835.789 652.771 836.492C652.957 837.186 653.235 837.801 653.606 838.338C653.987 838.875 654.461 839.3 655.027 839.612C655.594 839.915 656.253 840.066 657.005 840.066C657.747 840.066 658.396 839.915 658.953 839.612C659.52 839.3 659.988 838.875 660.359 838.338C660.73 837.801 661.009 837.186 661.194 836.492C661.39 835.789 661.487 835.042 661.487 834.251V833.914C661.487 833.133 661.39 832.396 661.194 831.702C661.009 830.999 660.726 830.379 660.345 829.842C659.974 829.295 659.505 828.865 658.938 828.553C658.382 828.24 657.728 828.084 656.976 828.084C656.233 828.084 655.579 828.24 655.013 828.553C654.456 828.865 653.987 829.295 653.606 829.842C653.235 830.379 652.957 830.999 652.771 831.702C652.586 832.396 652.493 833.133 652.493 833.914ZM674.246 826.15V828.23H665.677V826.15H674.246ZM668.577 822.298H671.287V838.074C671.287 838.611 671.37 839.017 671.536 839.29C671.702 839.563 671.917 839.744 672.181 839.832C672.444 839.92 672.728 839.964 673.03 839.964C673.255 839.964 673.489 839.944 673.733 839.905C673.987 839.856 674.178 839.817 674.305 839.788L674.319 842C674.104 842.068 673.821 842.132 673.47 842.19C673.128 842.259 672.713 842.293 672.225 842.293C671.561 842.293 670.95 842.161 670.394 841.897C669.837 841.634 669.393 841.194 669.061 840.579C668.738 839.954 668.577 839.114 668.577 838.06V822.298ZM686.771 839.29V831.131C686.771 830.506 686.644 829.964 686.39 829.505C686.146 829.036 685.774 828.675 685.276 828.421C684.778 828.167 684.163 828.04 683.431 828.04C682.747 828.04 682.146 828.157 681.629 828.392C681.121 828.626 680.721 828.934 680.428 829.314C680.145 829.695 680.003 830.105 680.003 830.545H677.293C677.293 829.979 677.439 829.417 677.732 828.86C678.025 828.304 678.445 827.801 678.992 827.352C679.549 826.893 680.213 826.531 680.984 826.268C681.766 825.994 682.635 825.857 683.592 825.857C684.744 825.857 685.76 826.053 686.639 826.443C687.527 826.834 688.221 827.425 688.719 828.216C689.227 828.997 689.48 829.979 689.48 831.16V838.543C689.48 839.07 689.524 839.632 689.612 840.228C689.71 840.823 689.852 841.336 690.037 841.766V842H687.21C687.073 841.688 686.966 841.272 686.888 840.755C686.81 840.228 686.771 839.739 686.771 839.29ZM687.239 832.391L687.269 834.295H684.529C683.758 834.295 683.069 834.358 682.464 834.485C681.858 834.603 681.351 834.783 680.94 835.027C680.53 835.271 680.218 835.579 680.003 835.95C679.788 836.312 679.681 836.736 679.681 837.225C679.681 837.723 679.793 838.177 680.018 838.587C680.242 838.997 680.579 839.324 681.028 839.568C681.487 839.803 682.049 839.92 682.713 839.92C683.543 839.92 684.275 839.744 684.91 839.393C685.545 839.041 686.048 838.611 686.419 838.104C686.8 837.596 687.005 837.103 687.034 836.624L688.191 837.928C688.123 838.338 687.938 838.792 687.635 839.29C687.332 839.788 686.927 840.267 686.419 840.726C685.921 841.175 685.325 841.551 684.632 841.854C683.948 842.146 683.177 842.293 682.317 842.293C681.243 842.293 680.301 842.083 679.49 841.663C678.689 841.243 678.064 840.682 677.615 839.979C677.176 839.266 676.956 838.47 676.956 837.591C676.956 836.741 677.122 835.994 677.454 835.35C677.786 834.695 678.265 834.153 678.89 833.724C679.515 833.284 680.267 832.952 681.146 832.728C682.024 832.503 683.006 832.391 684.09 832.391H687.239ZM696.688 819.5V842H693.963V819.5H696.688ZM711.424 819.5V842H708.699V819.5H711.424ZM718.719 826.15V842H715.994V826.15H718.719ZM715.789 821.946C715.789 821.507 715.921 821.136 716.185 820.833C716.458 820.53 716.858 820.379 717.386 820.379C717.903 820.379 718.299 820.53 718.572 820.833C718.855 821.136 718.997 821.507 718.997 821.946C718.997 822.366 718.855 822.728 718.572 823.03C718.299 823.323 717.903 823.47 717.386 823.47C716.858 823.47 716.458 823.323 716.185 823.03C715.921 822.728 715.789 822.366 715.789 821.946ZM727.112 842H724.402V824.48C724.402 823.338 724.607 822.376 725.018 821.595C725.438 820.804 726.038 820.208 726.819 819.808C727.601 819.397 728.528 819.192 729.603 819.192C729.915 819.192 730.228 819.212 730.54 819.251C730.862 819.29 731.175 819.349 731.478 819.427L731.331 821.639C731.126 821.59 730.892 821.556 730.628 821.536C730.374 821.517 730.12 821.507 729.866 821.507C729.29 821.507 728.792 821.624 728.372 821.858C727.962 822.083 727.649 822.415 727.435 822.854C727.22 823.294 727.112 823.836 727.112 824.48V842ZM730.481 826.15V828.23H721.897V826.15H730.481ZM739.725 842.293C738.621 842.293 737.62 842.107 736.722 841.736C735.833 841.355 735.066 840.823 734.422 840.14C733.787 839.456 733.299 838.646 732.957 837.708C732.615 836.771 732.444 835.745 732.444 834.632V834.017C732.444 832.728 732.635 831.58 733.016 830.574C733.396 829.559 733.914 828.699 734.568 827.996C735.223 827.293 735.965 826.761 736.795 826.399C737.625 826.038 738.484 825.857 739.373 825.857C740.506 825.857 741.482 826.053 742.303 826.443C743.133 826.834 743.812 827.381 744.339 828.084C744.866 828.777 745.257 829.598 745.511 830.545C745.765 831.482 745.892 832.508 745.892 833.621V834.837H734.056V832.625H743.182V832.42C743.143 831.717 742.996 831.033 742.742 830.369C742.498 829.705 742.107 829.158 741.57 828.729C741.033 828.299 740.301 828.084 739.373 828.084C738.758 828.084 738.191 828.216 737.674 828.479C737.156 828.733 736.712 829.114 736.341 829.622C735.97 830.13 735.682 830.75 735.477 831.482C735.271 832.215 735.169 833.06 735.169 834.017V834.632C735.169 835.384 735.271 836.092 735.477 836.756C735.691 837.41 735.999 837.986 736.399 838.484C736.81 838.982 737.303 839.373 737.879 839.656C738.465 839.939 739.129 840.081 739.871 840.081C740.828 840.081 741.639 839.886 742.303 839.495C742.967 839.104 743.548 838.582 744.046 837.928L745.687 839.231C745.345 839.749 744.91 840.242 744.383 840.711C743.855 841.18 743.206 841.561 742.435 841.854C741.673 842.146 740.77 842.293 739.725 842.293ZM758.284 837.796C758.284 837.405 758.196 837.044 758.021 836.712C757.854 836.37 757.508 836.062 756.98 835.789C756.463 835.506 755.682 835.262 754.637 835.057C753.758 834.871 752.962 834.651 752.249 834.397C751.546 834.144 750.945 833.836 750.447 833.475C749.959 833.113 749.583 832.688 749.319 832.2C749.056 831.712 748.924 831.141 748.924 830.486C748.924 829.861 749.061 829.271 749.334 828.714C749.617 828.157 750.013 827.664 750.521 827.234C751.038 826.805 751.658 826.468 752.381 826.224C753.104 825.979 753.909 825.857 754.798 825.857C756.067 825.857 757.151 826.082 758.05 826.531C758.948 826.98 759.637 827.581 760.115 828.333C760.594 829.075 760.833 829.9 760.833 830.809H758.123C758.123 830.369 757.991 829.944 757.728 829.534C757.474 829.114 757.098 828.768 756.6 828.494C756.111 828.221 755.511 828.084 754.798 828.084C754.046 828.084 753.436 828.201 752.967 828.436C752.508 828.66 752.171 828.948 751.956 829.3C751.751 829.651 751.648 830.022 751.648 830.413C751.648 830.706 751.697 830.97 751.795 831.204C751.902 831.429 752.088 831.639 752.352 831.834C752.615 832.02 752.986 832.195 753.465 832.361C753.943 832.527 754.554 832.693 755.296 832.859C756.595 833.152 757.664 833.504 758.504 833.914C759.344 834.324 759.969 834.827 760.379 835.423C760.789 836.019 760.994 836.741 760.994 837.591C760.994 838.284 760.848 838.919 760.555 839.495C760.271 840.071 759.856 840.569 759.31 840.989C758.772 841.399 758.128 841.722 757.376 841.956C756.634 842.181 755.799 842.293 754.871 842.293C753.475 842.293 752.293 842.044 751.326 841.546C750.359 841.048 749.627 840.403 749.129 839.612C748.631 838.821 748.382 837.986 748.382 837.107H751.106C751.146 837.85 751.36 838.44 751.751 838.88C752.142 839.31 752.62 839.617 753.187 839.803C753.753 839.979 754.314 840.066 754.871 840.066C755.613 840.066 756.233 839.969 756.731 839.773C757.239 839.578 757.625 839.31 757.889 838.968C758.152 838.626 758.284 838.235 758.284 837.796ZM767.264 829.197V848.094H764.539V826.15H767.029L767.264 829.197ZM777.942 833.943V834.251C777.942 835.403 777.806 836.473 777.532 837.459C777.259 838.436 776.858 839.285 776.331 840.008C775.813 840.73 775.174 841.292 774.412 841.692C773.65 842.093 772.776 842.293 771.79 842.293C770.784 842.293 769.896 842.127 769.124 841.795C768.353 841.463 767.698 840.979 767.161 840.345C766.624 839.71 766.194 838.948 765.872 838.06C765.56 837.171 765.345 836.17 765.228 835.057V833.416C765.345 832.244 765.564 831.194 765.887 830.267C766.209 829.339 766.634 828.548 767.161 827.894C767.698 827.229 768.348 826.727 769.109 826.385C769.871 826.033 770.75 825.857 771.746 825.857C772.742 825.857 773.626 826.053 774.397 826.443C775.169 826.824 775.818 827.371 776.346 828.084C776.873 828.797 777.269 829.651 777.532 830.647C777.806 831.634 777.942 832.732 777.942 833.943ZM775.218 834.251V833.943C775.218 833.152 775.135 832.41 774.969 831.717C774.803 831.014 774.544 830.398 774.192 829.871C773.851 829.334 773.411 828.914 772.874 828.611C772.337 828.299 771.697 828.143 770.955 828.143C770.271 828.143 769.676 828.26 769.168 828.494C768.67 828.729 768.245 829.046 767.894 829.446C767.542 829.837 767.254 830.286 767.029 830.794C766.814 831.292 766.653 831.81 766.546 832.347V836.141C766.741 836.824 767.015 837.469 767.366 838.074C767.718 838.67 768.187 839.153 768.772 839.524C769.358 839.886 770.096 840.066 770.984 840.066C771.717 840.066 772.347 839.915 772.874 839.612C773.411 839.3 773.851 838.875 774.192 838.338C774.544 837.801 774.803 837.186 774.969 836.492C775.135 835.789 775.218 835.042 775.218 834.251ZM790.745 839.29V831.131C790.745 830.506 790.618 829.964 790.364 829.505C790.12 829.036 789.749 828.675 789.251 828.421C788.753 828.167 788.138 828.04 787.405 828.04C786.722 828.04 786.121 828.157 785.604 828.392C785.096 828.626 784.695 828.934 784.402 829.314C784.119 829.695 783.978 830.105 783.978 830.545H781.268C781.268 829.979 781.414 829.417 781.707 828.86C782 828.304 782.42 827.801 782.967 827.352C783.523 826.893 784.188 826.531 784.959 826.268C785.74 825.994 786.609 825.857 787.566 825.857C788.719 825.857 789.734 826.053 790.613 826.443C791.502 826.834 792.195 827.425 792.693 828.216C793.201 828.997 793.455 829.979 793.455 831.16V838.543C793.455 839.07 793.499 839.632 793.587 840.228C793.685 840.823 793.826 841.336 794.012 841.766V842H791.185C791.048 841.688 790.94 841.272 790.862 840.755C790.784 840.228 790.745 839.739 790.745 839.29ZM791.214 832.391L791.243 834.295H788.504C787.732 834.295 787.044 834.358 786.438 834.485C785.833 834.603 785.325 834.783 784.915 835.027C784.505 835.271 784.192 835.579 783.978 835.95C783.763 836.312 783.655 836.736 783.655 837.225C783.655 837.723 783.768 838.177 783.992 838.587C784.217 838.997 784.554 839.324 785.003 839.568C785.462 839.803 786.023 839.92 786.688 839.92C787.518 839.92 788.25 839.744 788.885 839.393C789.52 839.041 790.022 838.611 790.394 838.104C790.774 837.596 790.979 837.103 791.009 836.624L792.166 837.928C792.098 838.338 791.912 838.792 791.609 839.29C791.307 839.788 790.901 840.267 790.394 840.726C789.896 841.175 789.3 841.551 788.606 841.854C787.923 842.146 787.151 842.293 786.292 842.293C785.218 842.293 784.275 842.083 783.465 841.663C782.664 841.243 782.039 840.682 781.59 839.979C781.15 839.266 780.931 838.47 780.931 837.591C780.931 836.741 781.097 835.994 781.429 835.35C781.761 834.695 782.239 834.153 782.864 833.724C783.489 833.284 784.241 832.952 785.12 832.728C785.999 832.503 786.98 832.391 788.064 832.391H791.214ZM800.428 829.534V842H797.718V826.15H800.281L800.428 829.534ZM799.783 833.475L798.655 833.431C798.665 832.347 798.826 831.346 799.139 830.428C799.451 829.5 799.891 828.694 800.457 828.011C801.023 827.327 801.697 826.8 802.479 826.429C803.27 826.048 804.144 825.857 805.101 825.857C805.882 825.857 806.585 825.965 807.21 826.18C807.835 826.385 808.367 826.717 808.807 827.176C809.256 827.635 809.598 828.23 809.832 828.963C810.066 829.686 810.184 830.569 810.184 831.614V842H807.459V831.585C807.459 830.755 807.337 830.091 807.093 829.593C806.849 829.085 806.492 828.719 806.023 828.494C805.555 828.26 804.979 828.143 804.295 828.143C803.621 828.143 803.006 828.284 802.449 828.567C801.902 828.851 801.429 829.241 801.028 829.739C800.638 830.237 800.33 830.809 800.105 831.453C799.891 832.088 799.783 832.762 799.783 833.475Z" fill="black"/>
<path d="M405.5 246C435.113 246 464.436 251.833 491.795 263.165C519.154 274.498 544.013 291.108 564.953 312.047C585.892 332.987 602.502 357.846 613.835 385.205C625.167 412.564 631 441.887 631 471.5" stroke="black" stroke-width="2"/>
<line x1="631.293" y1="471.293" x2="640.293" y2="462.293" stroke="black" stroke-width="2"/>
<line x1="631.293" y1="472.707" x2="620.293" y2="461.707" stroke="black" stroke-width="2"/>
<path d="M563 779C563 786.354 564.448 793.636 567.263 800.43C570.077 807.225 574.202 813.398 579.402 818.598C584.602 823.798 590.775 827.923 597.57 830.737C604.364 833.552 611.646 835 619 835" stroke="black" stroke-width="2"/>
<line y1="-1" x2="3.20305" y2="-1" transform="matrix(-0.707107 0.707107 0.707107 0.707107 619.126 836)" stroke="black" stroke-width="2"/>
<line y1="-1" x2="3.91484" y2="-1" transform="matrix(-0.707107 -0.707107 -0.707107 0.707107 619.126 836)" stroke="black" stroke-width="2"/>
<path d="M186.342 858.636H180.644V856.336H186.342C187.445 856.336 188.339 856.16 189.022 855.809C189.706 855.457 190.204 854.969 190.517 854.344C190.839 853.719 191 853.006 191 852.205C191 851.473 190.839 850.784 190.517 850.14C190.204 849.495 189.706 848.978 189.022 848.587C188.339 848.187 187.445 847.986 186.342 847.986H181.303V867H178.476V845.672H186.342C187.953 845.672 189.315 845.95 190.429 846.507C191.542 847.063 192.387 847.835 192.963 848.821C193.539 849.798 193.827 850.916 193.827 852.176C193.827 853.543 193.539 854.71 192.963 855.677C192.387 856.644 191.542 857.381 190.429 857.889C189.315 858.387 187.953 858.636 186.342 858.636ZM199.701 853.641V867H196.991V851.15H199.628L199.701 853.641ZM204.652 851.062L204.638 853.582C204.413 853.533 204.198 853.504 203.993 853.494C203.798 853.475 203.573 853.465 203.319 853.465C202.694 853.465 202.143 853.562 201.664 853.758C201.186 853.953 200.78 854.227 200.448 854.578C200.116 854.93 199.853 855.35 199.657 855.838C199.472 856.316 199.35 856.844 199.291 857.42L198.529 857.859C198.529 856.902 198.622 856.004 198.808 855.164C199.003 854.324 199.301 853.582 199.701 852.938C200.102 852.283 200.609 851.775 201.225 851.414C201.85 851.043 202.592 850.857 203.451 850.857C203.646 850.857 203.871 850.882 204.125 850.931C204.379 850.97 204.555 851.014 204.652 851.062ZM213.441 867.293C212.338 867.293 211.337 867.107 210.438 866.736C209.55 866.355 208.783 865.823 208.139 865.14C207.504 864.456 207.016 863.646 206.674 862.708C206.332 861.771 206.161 860.745 206.161 859.632V859.017C206.161 857.728 206.352 856.58 206.732 855.574C207.113 854.559 207.631 853.699 208.285 852.996C208.939 852.293 209.682 851.761 210.512 851.399C211.342 851.038 212.201 850.857 213.09 850.857C214.223 850.857 215.199 851.053 216.02 851.443C216.85 851.834 217.528 852.381 218.056 853.084C218.583 853.777 218.974 854.598 219.228 855.545C219.481 856.482 219.608 857.508 219.608 858.621V859.837H207.772V857.625H216.898V857.42C216.859 856.717 216.713 856.033 216.459 855.369C216.215 854.705 215.824 854.158 215.287 853.729C214.75 853.299 214.018 853.084 213.09 853.084C212.475 853.084 211.908 853.216 211.391 853.479C210.873 853.733 210.429 854.114 210.058 854.622C209.687 855.13 209.398 855.75 209.193 856.482C208.988 857.215 208.886 858.06 208.886 859.017V859.632C208.886 860.384 208.988 861.092 209.193 861.756C209.408 862.41 209.716 862.986 210.116 863.484C210.526 863.982 211.02 864.373 211.596 864.656C212.182 864.939 212.846 865.081 213.588 865.081C214.545 865.081 215.355 864.886 216.02 864.495C216.684 864.104 217.265 863.582 217.763 862.928L219.403 864.231C219.062 864.749 218.627 865.242 218.1 865.711C217.572 866.18 216.923 866.561 216.151 866.854C215.39 867.146 214.486 867.293 213.441 867.293ZM232.001 862.796C232.001 862.405 231.913 862.044 231.737 861.712C231.571 861.37 231.225 861.062 230.697 860.789C230.18 860.506 229.398 860.262 228.354 860.057C227.475 859.871 226.679 859.651 225.966 859.397C225.263 859.144 224.662 858.836 224.164 858.475C223.676 858.113 223.3 857.688 223.036 857.2C222.772 856.712 222.641 856.141 222.641 855.486C222.641 854.861 222.777 854.271 223.051 853.714C223.334 853.157 223.729 852.664 224.237 852.234C224.755 851.805 225.375 851.468 226.098 851.224C226.82 850.979 227.626 850.857 228.515 850.857C229.784 850.857 230.868 851.082 231.767 851.531C232.665 851.98 233.354 852.581 233.832 853.333C234.311 854.075 234.55 854.9 234.55 855.809H231.84C231.84 855.369 231.708 854.944 231.444 854.534C231.19 854.114 230.814 853.768 230.316 853.494C229.828 853.221 229.228 853.084 228.515 853.084C227.763 853.084 227.152 853.201 226.684 853.436C226.225 853.66 225.888 853.948 225.673 854.3C225.468 854.651 225.365 855.022 225.365 855.413C225.365 855.706 225.414 855.97 225.512 856.204C225.619 856.429 225.805 856.639 226.068 856.834C226.332 857.02 226.703 857.195 227.182 857.361C227.66 857.527 228.271 857.693 229.013 857.859C230.312 858.152 231.381 858.504 232.221 858.914C233.061 859.324 233.686 859.827 234.096 860.423C234.506 861.019 234.711 861.741 234.711 862.591C234.711 863.284 234.564 863.919 234.271 864.495C233.988 865.071 233.573 865.569 233.026 865.989C232.489 866.399 231.845 866.722 231.093 866.956C230.351 867.181 229.516 867.293 228.588 867.293C227.191 867.293 226.01 867.044 225.043 866.546C224.076 866.048 223.344 865.403 222.846 864.612C222.348 863.821 222.099 862.986 222.099 862.107H224.823C224.862 862.85 225.077 863.44 225.468 863.88C225.858 864.31 226.337 864.617 226.903 864.803C227.47 864.979 228.031 865.066 228.588 865.066C229.33 865.066 229.95 864.969 230.448 864.773C230.956 864.578 231.342 864.31 231.605 863.968C231.869 863.626 232.001 863.235 232.001 862.796ZM241.215 851.15V867H238.49V851.15H241.215ZM238.285 846.946C238.285 846.507 238.417 846.136 238.681 845.833C238.954 845.53 239.354 845.379 239.882 845.379C240.399 845.379 240.795 845.53 241.068 845.833C241.352 846.136 241.493 846.507 241.493 846.946C241.493 847.366 241.352 847.728 241.068 848.03C240.795 848.323 240.399 848.47 239.882 848.47C239.354 848.47 238.954 848.323 238.681 848.03C238.417 847.728 238.285 847.366 238.285 846.946ZM255.556 863.924V844.5H258.28V867H255.79L255.556 863.924ZM244.892 859.251V858.943C244.892 857.732 245.038 856.634 245.331 855.647C245.634 854.651 246.059 853.797 246.605 853.084C247.162 852.371 247.821 851.824 248.583 851.443C249.354 851.053 250.214 850.857 251.161 850.857C252.157 850.857 253.026 851.033 253.769 851.385C254.521 851.727 255.155 852.229 255.673 852.894C256.2 853.548 256.615 854.339 256.918 855.267C257.221 856.194 257.431 857.244 257.548 858.416V859.764C257.44 860.926 257.23 861.971 256.918 862.898C256.615 863.826 256.2 864.617 255.673 865.271C255.155 865.926 254.521 866.429 253.769 866.78C253.017 867.122 252.138 867.293 251.132 867.293C250.204 867.293 249.354 867.093 248.583 866.692C247.821 866.292 247.162 865.73 246.605 865.008C246.059 864.285 245.634 863.436 245.331 862.459C245.038 861.473 244.892 860.403 244.892 859.251ZM247.616 858.943V859.251C247.616 860.042 247.694 860.784 247.851 861.478C248.017 862.171 248.271 862.781 248.612 863.309C248.954 863.836 249.389 864.251 249.916 864.554C250.443 864.847 251.073 864.993 251.806 864.993C252.704 864.993 253.441 864.803 254.018 864.422C254.604 864.041 255.072 863.538 255.424 862.913C255.775 862.288 256.049 861.609 256.244 860.877V857.347C256.127 856.81 255.956 856.292 255.731 855.794C255.517 855.286 255.233 854.837 254.882 854.446C254.54 854.046 254.115 853.729 253.607 853.494C253.109 853.26 252.519 853.143 251.835 853.143C251.093 853.143 250.453 853.299 249.916 853.611C249.389 853.914 248.954 854.334 248.612 854.871C248.271 855.398 248.017 856.014 247.851 856.717C247.694 857.41 247.616 858.152 247.616 858.943ZM269.076 867.293C267.973 867.293 266.972 867.107 266.073 866.736C265.185 866.355 264.418 865.823 263.773 865.14C263.139 864.456 262.65 863.646 262.309 862.708C261.967 861.771 261.796 860.745 261.796 859.632V859.017C261.796 857.728 261.986 856.58 262.367 855.574C262.748 854.559 263.266 853.699 263.92 852.996C264.574 852.293 265.316 851.761 266.146 851.399C266.977 851.038 267.836 850.857 268.725 850.857C269.857 850.857 270.834 851.053 271.654 851.443C272.484 851.834 273.163 852.381 273.69 853.084C274.218 853.777 274.608 854.598 274.862 855.545C275.116 856.482 275.243 857.508 275.243 858.621V859.837H263.407V857.625H272.533V857.42C272.494 856.717 272.348 856.033 272.094 855.369C271.85 854.705 271.459 854.158 270.922 853.729C270.385 853.299 269.652 853.084 268.725 853.084C268.109 853.084 267.543 853.216 267.025 853.479C266.508 853.733 266.063 854.114 265.692 854.622C265.321 855.13 265.033 855.75 264.828 856.482C264.623 857.215 264.521 858.06 264.521 859.017V859.632C264.521 860.384 264.623 861.092 264.828 861.756C265.043 862.41 265.351 862.986 265.751 863.484C266.161 863.982 266.654 864.373 267.23 864.656C267.816 864.939 268.48 865.081 269.223 865.081C270.18 865.081 270.99 864.886 271.654 864.495C272.318 864.104 272.899 863.582 273.397 862.928L275.038 864.231C274.696 864.749 274.262 865.242 273.734 865.711C273.207 866.18 272.558 866.561 271.786 866.854C271.024 867.146 270.121 867.293 269.076 867.293ZM281.117 854.534V867H278.407V851.15H280.971L281.117 854.534ZM280.473 858.475L279.345 858.431C279.354 857.347 279.516 856.346 279.828 855.428C280.141 854.5 280.58 853.694 281.146 853.011C281.713 852.327 282.387 851.8 283.168 851.429C283.959 851.048 284.833 850.857 285.79 850.857C286.571 850.857 287.274 850.965 287.899 851.18C288.524 851.385 289.057 851.717 289.496 852.176C289.945 852.635 290.287 853.23 290.521 853.963C290.756 854.686 290.873 855.569 290.873 856.614V867H288.148V856.585C288.148 855.755 288.026 855.091 287.782 854.593C287.538 854.085 287.182 853.719 286.713 853.494C286.244 853.26 285.668 853.143 284.984 853.143C284.311 853.143 283.695 853.284 283.139 853.567C282.592 853.851 282.118 854.241 281.718 854.739C281.327 855.237 281.02 855.809 280.795 856.453C280.58 857.088 280.473 857.762 280.473 858.475ZM301.625 851.15V853.23H293.056V851.15H301.625ZM295.956 847.298H298.666V863.074C298.666 863.611 298.749 864.017 298.915 864.29C299.081 864.563 299.296 864.744 299.56 864.832C299.823 864.92 300.106 864.964 300.409 864.964C300.634 864.964 300.868 864.944 301.112 864.905C301.366 864.856 301.557 864.817 301.684 864.788L301.698 867C301.483 867.068 301.2 867.132 300.849 867.19C300.507 867.259 300.092 867.293 299.604 867.293C298.939 867.293 298.329 867.161 297.772 866.897C297.216 866.634 296.771 866.194 296.439 865.579C296.117 864.954 295.956 864.114 295.956 863.06V847.298ZM307.748 851.15V867H305.023V851.15H307.748ZM304.818 846.946C304.818 846.507 304.95 846.136 305.214 845.833C305.487 845.53 305.888 845.379 306.415 845.379C306.933 845.379 307.328 845.53 307.602 845.833C307.885 846.136 308.026 846.507 308.026 846.946C308.026 847.366 307.885 847.728 307.602 848.03C307.328 848.323 306.933 848.47 306.415 848.47C305.888 848.47 305.487 848.323 305.214 848.03C304.95 847.728 304.818 847.366 304.818 846.946ZM321.444 864.29V856.131C321.444 855.506 321.317 854.964 321.063 854.505C320.819 854.036 320.448 853.675 319.95 853.421C319.452 853.167 318.837 853.04 318.104 853.04C317.421 853.04 316.82 853.157 316.303 853.392C315.795 853.626 315.395 853.934 315.102 854.314C314.818 854.695 314.677 855.105 314.677 855.545H311.967C311.967 854.979 312.113 854.417 312.406 853.86C312.699 853.304 313.119 852.801 313.666 852.352C314.223 851.893 314.887 851.531 315.658 851.268C316.439 850.994 317.309 850.857 318.266 850.857C319.418 850.857 320.434 851.053 321.312 851.443C322.201 851.834 322.895 852.425 323.393 853.216C323.9 853.997 324.154 854.979 324.154 856.16V863.543C324.154 864.07 324.198 864.632 324.286 865.228C324.384 865.823 324.525 866.336 324.711 866.766V867H321.884C321.747 866.688 321.64 866.272 321.562 865.755C321.483 865.228 321.444 864.739 321.444 864.29ZM321.913 857.391L321.942 859.295H319.203C318.432 859.295 317.743 859.358 317.138 859.485C316.532 859.603 316.024 859.783 315.614 860.027C315.204 860.271 314.892 860.579 314.677 860.95C314.462 861.312 314.354 861.736 314.354 862.225C314.354 862.723 314.467 863.177 314.691 863.587C314.916 863.997 315.253 864.324 315.702 864.568C316.161 864.803 316.723 864.92 317.387 864.92C318.217 864.92 318.949 864.744 319.584 864.393C320.219 864.041 320.722 863.611 321.093 863.104C321.474 862.596 321.679 862.103 321.708 861.624L322.865 862.928C322.797 863.338 322.611 863.792 322.309 864.29C322.006 864.788 321.601 865.267 321.093 865.726C320.595 866.175 319.999 866.551 319.306 866.854C318.622 867.146 317.851 867.293 316.991 867.293C315.917 867.293 314.975 867.083 314.164 866.663C313.363 866.243 312.738 865.682 312.289 864.979C311.85 864.266 311.63 863.47 311.63 862.591C311.63 861.741 311.796 860.994 312.128 860.35C312.46 859.695 312.938 859.153 313.563 858.724C314.188 858.284 314.94 857.952 315.819 857.728C316.698 857.503 317.68 857.391 318.764 857.391H321.913ZM331.361 844.5V867H328.637V844.5H331.361ZM347.606 865.359L352.016 851.15H354.916L348.559 869.446C348.412 869.837 348.217 870.257 347.973 870.706C347.738 871.165 347.436 871.6 347.064 872.01C346.693 872.42 346.244 872.752 345.717 873.006C345.199 873.27 344.579 873.401 343.856 873.401C343.642 873.401 343.368 873.372 343.036 873.313C342.704 873.255 342.47 873.206 342.333 873.167L342.318 870.97C342.396 870.979 342.519 870.989 342.685 870.999C342.86 871.019 342.982 871.028 343.051 871.028C343.666 871.028 344.188 870.945 344.618 870.779C345.048 870.623 345.409 870.354 345.702 869.974C346.005 869.603 346.264 869.09 346.479 868.436L347.606 865.359ZM344.369 851.15L348.485 863.455L349.188 866.312L347.24 867.308L341.41 851.15H344.369ZM363.734 867.293C362.631 867.293 361.63 867.107 360.731 866.736C359.843 866.355 359.076 865.823 358.432 865.14C357.797 864.456 357.309 863.646 356.967 862.708C356.625 861.771 356.454 860.745 356.454 859.632V859.017C356.454 857.728 356.645 856.58 357.025 855.574C357.406 854.559 357.924 853.699 358.578 852.996C359.232 852.293 359.975 851.761 360.805 851.399C361.635 851.038 362.494 850.857 363.383 850.857C364.516 850.857 365.492 851.053 366.312 851.443C367.143 851.834 367.821 852.381 368.349 853.084C368.876 853.777 369.267 854.598 369.521 855.545C369.774 856.482 369.901 857.508 369.901 858.621V859.837H358.065V857.625H367.191V857.42C367.152 856.717 367.006 856.033 366.752 855.369C366.508 854.705 366.117 854.158 365.58 853.729C365.043 853.299 364.311 853.084 363.383 853.084C362.768 853.084 362.201 853.216 361.684 853.479C361.166 853.733 360.722 854.114 360.351 854.622C359.979 855.13 359.691 855.75 359.486 856.482C359.281 857.215 359.179 858.06 359.179 859.017V859.632C359.179 860.384 359.281 861.092 359.486 861.756C359.701 862.41 360.009 862.986 360.409 863.484C360.819 863.982 361.312 864.373 361.889 864.656C362.475 864.939 363.139 865.081 363.881 865.081C364.838 865.081 365.648 864.886 366.312 864.495C366.977 864.104 367.558 863.582 368.056 862.928L369.696 864.231C369.354 864.749 368.92 865.242 368.393 865.711C367.865 866.18 367.216 866.561 366.444 866.854C365.683 867.146 364.779 867.293 363.734 867.293ZM382.411 864.29V856.131C382.411 855.506 382.284 854.964 382.03 854.505C381.786 854.036 381.415 853.675 380.917 853.421C380.419 853.167 379.804 853.04 379.071 853.04C378.388 853.04 377.787 853.157 377.27 853.392C376.762 853.626 376.361 853.934 376.068 854.314C375.785 854.695 375.644 855.105 375.644 855.545H372.934C372.934 854.979 373.08 854.417 373.373 853.86C373.666 853.304 374.086 852.801 374.633 852.352C375.189 851.893 375.854 851.531 376.625 851.268C377.406 850.994 378.275 850.857 379.232 850.857C380.385 850.857 381.4 851.053 382.279 851.443C383.168 851.834 383.861 852.425 384.359 853.216C384.867 853.997 385.121 854.979 385.121 856.16V863.543C385.121 864.07 385.165 864.632 385.253 865.228C385.351 865.823 385.492 866.336 385.678 866.766V867H382.851C382.714 866.688 382.606 866.272 382.528 865.755C382.45 865.228 382.411 864.739 382.411 864.29ZM382.88 857.391L382.909 859.295H380.17C379.398 859.295 378.71 859.358 378.104 859.485C377.499 859.603 376.991 859.783 376.581 860.027C376.171 860.271 375.858 860.579 375.644 860.95C375.429 861.312 375.321 861.736 375.321 862.225C375.321 862.723 375.434 863.177 375.658 863.587C375.883 863.997 376.22 864.324 376.669 864.568C377.128 864.803 377.689 864.92 378.354 864.92C379.184 864.92 379.916 864.744 380.551 864.393C381.186 864.041 381.688 863.611 382.06 863.104C382.44 862.596 382.646 862.103 382.675 861.624L383.832 862.928C383.764 863.338 383.578 863.792 383.275 864.29C382.973 864.788 382.567 865.267 382.06 865.726C381.562 866.175 380.966 866.551 380.272 866.854C379.589 867.146 378.817 867.293 377.958 867.293C376.884 867.293 375.941 867.083 375.131 866.663C374.33 866.243 373.705 865.682 373.256 864.979C372.816 864.266 372.597 863.47 372.597 862.591C372.597 861.741 372.763 860.994 373.095 860.35C373.427 859.695 373.905 859.153 374.53 858.724C375.155 858.284 375.907 857.952 376.786 857.728C377.665 857.503 378.646 857.391 379.73 857.391H382.88ZM392.094 853.641V867H389.384V851.15H392.021L392.094 853.641ZM397.045 851.062L397.03 853.582C396.806 853.533 396.591 853.504 396.386 853.494C396.19 853.475 395.966 853.465 395.712 853.465C395.087 853.465 394.535 853.562 394.057 853.758C393.578 853.953 393.173 854.227 392.841 854.578C392.509 854.93 392.245 855.35 392.05 855.838C391.864 856.316 391.742 856.844 391.684 857.42L390.922 857.859C390.922 856.902 391.015 856.004 391.2 855.164C391.396 854.324 391.693 853.582 392.094 852.938C392.494 852.283 393.002 851.775 393.617 851.414C394.242 851.043 394.984 850.857 395.844 850.857C396.039 850.857 396.264 850.882 396.518 850.931C396.771 850.97 396.947 851.014 397.045 851.062ZM408.778 862.796C408.778 862.405 408.69 862.044 408.515 861.712C408.349 861.37 408.002 861.062 407.475 860.789C406.957 860.506 406.176 860.262 405.131 860.057C404.252 859.871 403.456 859.651 402.743 859.397C402.04 859.144 401.439 858.836 400.941 858.475C400.453 858.113 400.077 857.688 399.813 857.2C399.55 856.712 399.418 856.141 399.418 855.486C399.418 854.861 399.555 854.271 399.828 853.714C400.111 853.157 400.507 852.664 401.015 852.234C401.532 851.805 402.152 851.468 402.875 851.224C403.598 850.979 404.403 850.857 405.292 850.857C406.562 850.857 407.646 851.082 408.544 851.531C409.442 851.98 410.131 852.581 410.609 853.333C411.088 854.075 411.327 854.9 411.327 855.809H408.617C408.617 855.369 408.485 854.944 408.222 854.534C407.968 854.114 407.592 853.768 407.094 853.494C406.605 853.221 406.005 853.084 405.292 853.084C404.54 853.084 403.93 853.201 403.461 853.436C403.002 853.66 402.665 853.948 402.45 854.3C402.245 854.651 402.143 855.022 402.143 855.413C402.143 855.706 402.191 855.97 402.289 856.204C402.396 856.429 402.582 856.639 402.846 856.834C403.109 857.02 403.48 857.195 403.959 857.361C404.438 857.527 405.048 857.693 405.79 857.859C407.089 858.152 408.158 858.504 408.998 858.914C409.838 859.324 410.463 859.827 410.873 860.423C411.283 861.019 411.488 861.741 411.488 862.591C411.488 863.284 411.342 863.919 411.049 864.495C410.766 865.071 410.351 865.569 409.804 865.989C409.267 866.399 408.622 866.722 407.87 866.956C407.128 867.181 406.293 867.293 405.365 867.293C403.969 867.293 402.787 867.044 401.82 866.546C400.854 866.048 400.121 865.403 399.623 864.612C399.125 863.821 398.876 862.986 398.876 862.107H401.601C401.64 862.85 401.854 863.44 402.245 863.88C402.636 864.31 403.114 864.617 403.681 864.803C404.247 864.979 404.809 865.066 405.365 865.066C406.107 865.066 406.728 864.969 407.226 864.773C407.733 864.578 408.119 864.31 408.383 863.968C408.646 863.626 408.778 863.235 408.778 862.796Z" fill="black"/>
<path d="M478 801C478 808.354 476.552 815.636 473.737 822.43C470.923 829.225 466.798 835.398 461.598 840.598C456.398 845.798 450.225 849.923 443.43 852.737C436.636 855.552 429.354 857 422 857" stroke="black" stroke-width="2"/>
<line x1="422.581" y1="857.293" x2="424.846" y2="859.558" stroke="black" stroke-width="2"/>
<line x1="421.167" y1="857.293" x2="423.935" y2="854.525" stroke="black" stroke-width="2"/>
<line x1="455" y1="802" x2="494" y2="802" stroke="black" stroke-width="2"/>
<line x1="204" y1="778" x2="606" y2="778" stroke="black" stroke-width="2"/>
<rect x="-56" width="1168" height="144" fill="white"/>
</svg>
